<?xml version="1.0" standalone="no"?>
<!DOCTYPE svg PUBLIC "-//W3C//DTD SVG 1.1//EN" "http://www.w3.org/Graphics/SVG/1.1/DTD/svg11.dtd" >
<svg xmlns="http://www.w3.org/2000/svg">
<metadata>Generated by IcoMoon</metadata>
<defs>
<font id="icomoon" horiz-adv-x="1024">
<font-face units-per-em="1024" ascent="960" descent="-64" />
<missing-glyph horiz-adv-x="1024" />
<glyph unicode="&#x20;" d="" horiz-adv-x="512" />
<glyph unicode="&#xe600;" d="M512 864c-229.76 0-416-186.24-416-416s186.24-416 416-416 416 186.24 416 416-186.24 416-416 416zM512 96c-194.4 0-352 157.6-352 352s157.6 352 352 352 352-157.6 352-352-157.6-352-352-352zM474.496 553.312c-18.848-14.656-36.288-24.64-52.32-29.888v-55.744c30.496 10.048 56.992 25.568 79.488 46.56v-227.552h65.504v320h-53.952c-6.976-19.584-19.904-38.688-38.72-53.376z" />
<glyph unicode="&#xe601;" d="M512 864c-229.76 0-416-186.24-416-416s186.24-416 416-416 416 186.24 416 416-186.24 416-416 416zM512 96c-194.4 0-352 157.6-352 352s157.6 352 352 352 352-157.6 352-352-157.6-352-352-352zM562.048 391.136c19.424 17.792 32.864 31.424 40.32 40.896 11.232 14.304 19.424 28 24.64 41.024 5.152 13.056 7.744 26.816 7.744 41.248 0 25.376-9.056 46.624-27.136 63.68s-42.944 25.6-74.592 25.6c-28.864 0-52.928-7.36-72.192-22.080s-30.72-38.976-34.336-72.8l61.248-6.112c1.152 17.92 5.536 30.72 13.12 38.432 7.552 7.712 17.76 11.552 30.592 11.552 12.96 0 23.136-3.68 30.464-11.040 7.36-7.36 11.072-17.92 11.072-31.616 0-12.384-4.256-24.928-12.672-37.632-6.24-9.184-23.264-26.688-50.944-52.48-34.432-31.936-57.472-57.568-69.12-76.896-11.68-19.328-18.688-39.744-20.992-61.344h215.488v56.992h-122.208c3.232 5.536 7.392 11.232 12.608 17.088 5.12 5.856 17.44 17.664 36.896 35.488z" />
<glyph unicode="&#xe602;" d="M512 864c-229.76 0-416-186.24-416-416s186.24-416 416-416 416 186.24 416 416-186.24 416-416 416zM512 96c-194.4 0-352 157.6-352 352s157.6 352 352 352 352-157.6 352-352-157.6-352-352-352zM551.936 472.992c30.816 16.8 46.176 39.296 46.176 67.456 0 19.872-7.488 37.664-22.56 53.44-18.272 19.264-42.56 28.896-72.8 28.896-17.696 0-33.664-3.328-47.904-9.952s-25.344-15.776-33.344-27.36c-7.936-11.584-13.92-27.104-17.888-46.528l56.736-9.664c1.632 14.048 6.176 24.704 13.632 32.032 7.488 7.328 16.512 10.976 27.040 10.976 10.688 0 19.296-3.232 25.728-9.632 6.432-6.432 9.664-15.072 9.664-25.888 0-12.736-4.416-22.912-13.216-30.624-8.736-7.68-21.536-11.296-38.24-10.848l-6.816-50.080c11.008 3.072 20.416 4.608 28.32 4.608 11.968 0 22.112-4.512 30.464-13.536s12.512-21.28 12.512-36.704c0-16.288-4.352-29.248-13.024-38.848-8.704-9.6-19.424-14.4-32.128-14.4-11.84 0-21.952 4-30.24 12-8.352 8-13.44 19.584-15.328 34.752l-59.488-7.232c3.072-26.976 14.144-48.8 33.28-65.504s43.2-25.024 72.256-25.024c30.624 0 56.256 9.888 76.832 29.728 20.608 19.808 30.88 43.776 30.88 71.904 0 19.36-5.504 35.904-16.48 49.6-11.072 13.664-25.728 22.496-44.064 26.432z" />
<glyph unicode="&#xe603;" d="M512 864c-229.76 0-416-186.24-416-416s186.24-416 416-416 416 186.24 416 416-186.24 416-416 416zM512 96c-194.4 0-352 157.6-352 352s157.6 352 352 352 352-157.6 352-352-157.6-352-352-352zM581.632 597.216h-51.616l-139.328-203.968v-53.568h131.488v-64.48h59.456v64.512h39.776v53.76h-39.776v203.744zM522.144 393.44h-73.888l73.888 109.888v-109.888z" />
<glyph unicode="&#xe604;" d="M512 864c-229.76 0-416-186.24-416-416s186.24-416 416-416 416 186.24 416 416-186.24 416-416 416zM512 96c-194.4 0-352 157.6-352 352s157.6 352 352 352 352-157.6 352-352-157.6-352-352-352zM520.288 515.552c-14.304 0-28.352-3.424-42.016-10.272l9.76 54.528h115.904v57.504h-162.496l-31.52-167.008 49.824-7.264c14.016 15.68 29.824 23.488 47.488 23.488 14.144 0 25.632-4.928 34.464-14.784s13.248-24.64 13.248-44.352c0-21.024-4.48-36.736-13.344-47.2-8.896-10.464-19.776-15.648-32.64-15.648-11.232 0-21.152 4.032-29.76 12.128-8.64 8.064-13.792 19.040-15.552 32.864l-61.216-6.336c3.648-26.848 14.784-48.192 33.472-64.096 18.688-15.872 42.816-23.808 72.448-23.808 37.056 0 65.984 14.112 86.88 42.464 15.328 20.704 22.944 44.288 22.944 70.72 0 31.648-9.472 57.408-28.448 77.28-19.040 19.872-42.176 29.792-69.44 29.792z" />
<glyph unicode="&#xe605;" d="M512 864c-229.76 0-416-186.24-416-416s186.24-416 416-416 416 186.24 416 416-186.24 416-416 416zM512 96c-194.4 0-352 157.6-352 352s157.6 352 352 352 352-157.6 352-352-157.6-352-352-352zM528.64 490.080c-22.752 0-41.76-9.024-57.088-27.136 2.336 36.832 7.968 61.056 16.928 72.672s19.904 17.44 32.896 17.44c9.76 0 17.696-2.912 23.808-8.736s9.92-14.816 11.36-27.040l59.488 6.56c-4.384 25.92-14.56 45.664-30.528 59.296-15.968 13.6-36.128 20.416-60.48 20.416-34.72 0-62.944-12.96-84.672-38.944-21.728-25.952-32.576-68.32-32.576-127.104 0-57.312 10.4-98.56 31.296-123.712 20.832-25.152 47.456-37.76 79.872-37.76 30.208 0 54.944 9.952 74.176 29.792 19.296 19.872 28.896 46.24 28.896 79.104 0 30.976-9.184 56.224-27.456 75.776-18.272 19.616-40.256 29.376-65.92 29.376zM550.432 340.48c-7.552-8.896-17.056-13.344-28.416-13.344-11.776 0-22.272 5.44-31.456 16.32s-13.76 26.336-13.76 46.368c0 18.112 4.064 31.84 12.224 41.12s18.144 13.952 29.952 13.952c12.224 0 22.432-4.864 30.592-14.592s12.256-25.024 12.256-45.952c0-20.352-3.808-34.976-11.392-43.872z" />
<glyph unicode="&#xe606;" d="M512 864c-229.76 0-416-186.24-416-416s186.24-416 416-416 416 186.24 416 416-186.24 416-416 416zM512 96c-194.4 0-352 157.6-352 352s157.6 352 352 352 352-157.6 352-352-157.6-352-352-352zM407.808 534.688h139.872c-28.864-36.352-51.936-77.6-69.184-123.744-17.28-46.112-26.432-91.392-27.424-135.776h59.264c-0.16 28.32 4.48 60.448 13.888 96.384 9.376 35.968 23.072 69.92 40.96 101.888 17.92 31.936 35.52 56.448 52.896 73.504v44.736h-210.24v-56.992z" />
<glyph unicode="&#xe607;" d="M512 864c-229.76 0-416-186.24-416-416s186.24-416 416-416 416 186.24 416 416-186.24 416-416 416zM512 96c-194.4 0-352 157.6-352 352s157.6 352 352 352 352-157.6 352-352-157.6-352-352-352zM550.592 467.424c13.984 6.112 24.832 14.976 32.576 26.592s11.584 24.832 11.584 39.712c0 23.936-8.448 43.68-25.248 59.296-16.864 15.584-40.544 23.392-71.008 23.392-30.784 0-54.496-7.808-71.2-23.392-16.704-15.616-25.056-35.36-25.056-59.296 0-14.016 3.616-26.88 10.816-38.624 7.264-11.744 18.784-20.96 34.688-27.68-18.496-7.904-32.032-19.104-40.64-33.632-8.576-14.528-12.864-30.496-12.864-47.872 0-31.552 11.424-56.416 34.304-74.496 19.36-15.328 43.648-23.008 72.8-23.008 31.328 0 56.448 9.28 75.328 27.84 18.88 18.528 28.32 42.624 28.32 72.288 0 17.984-4.64 33.824-13.888 47.552s-22.72 24.16-40.512 31.328zM471.008 557.152c7.008 7.008 16.384 10.496 28.192 10.496 11.36 0 20.512-3.456 27.424-10.4 6.912-6.912 10.368-16.16 10.368-27.68 0-12.256-3.488-21.856-10.496-28.768-7.008-6.944-16.32-10.4-27.968-10.4-11.52 0-20.704 3.424-27.648 10.272-6.912 6.848-10.368 16.416-10.368 28.672 0 11.52 3.488 20.8 10.496 27.808zM531.776 351.584c-8.352-9.12-18.848-13.696-31.52-13.696-12.96 0-23.808 4.704-32.512 14.208-8.672 9.504-12.992 22.752-12.992 39.68 0 12.128 3.68 23.392 11.072 33.792 7.36 10.368 18.56 15.552 33.568 15.552 12.992 0 23.712-4.576 32.192-13.696 8.448-9.152 12.672-21.248 12.672-36.256 0-17.216-4.16-30.432-12.48-39.584z" />
<glyph unicode="&#xe608;" d="M512 864c-229.76 0-416-186.24-416-416s186.24-416 416-416 416 186.24 416 416-186.24 416-416 416zM512 96c-194.4 0-352 157.6-352 352s157.6 352 352 352 352-157.6 352-352-157.6-352-352-352zM499.488 597.216c-29.92 0-54.528-9.952-73.888-29.856-19.328-19.904-28.96-46.144-28.96-78.656 0-31.232 9.152-56.576 27.424-76.032 18.304-19.456 40.096-29.216 65.312-29.216 23.2 0 42.496 8.992 57.984 26.944-2.464-36.768-8.16-60.992-17.024-72.672-8.896-11.648-19.648-17.504-32.352-17.504-10.048 0-18.112 2.944-24.256 8.768s-9.92 14.848-11.36 26.976l-59.456-6.56c4.384-26.656 14.272-46.688 29.728-60.064 15.456-13.408 35.744-20.128 60.8-20.128 34.88 0 63.136 12.992 84.864 39.008 21.728 25.984 32.608 68.32 32.608 126.976 0 57.664-10.432 99.072-31.296 124.256-20.864 25.152-47.584 37.76-80.128 37.76zM529.76 442.464c-8.064-9.344-17.984-14.016-29.792-14.016-12.224 0-22.432 4.832-30.592 14.56s-12.224 24.928-12.224 45.632c0 20.416 3.744 35.136 11.232 44.096 7.52 8.96 16.928 13.44 28.32 13.44 11.936 0 22.432-5.472 31.552-16.416 9.088-10.944 13.664-26.336 13.664-46.176 0-18.080-4.032-31.776-12.16-41.12z" />
<glyph unicode="&#xe609;" d="M512 864c-229.76 0-416-186.24-416-416s186.24-416 416-416 416 186.24 416 416-186.24 416-416 416zM512 96c-194.4 0-352 157.6-352 352s157.6 352 352 352 352-157.6 352-352-157.6-352-352-352zM511.808 616.416c-31.136 0-55.328-10.944-72.704-32.832-21.024-26.56-31.52-70.016-31.52-130.368 0-61.536 9.568-104.32 28.672-128.32s44.32-35.968 75.552-35.968c31.072 0 55.328 10.944 72.672 32.8 21.024 26.528 31.552 70.144 31.552 130.816 0 60.8-10.432 104.352-31.328 130.624-17.504 22.144-41.824 33.248-72.896 33.248zM545.44 372.512c-3.264-12.256-7.776-20.736-13.632-25.504-5.888-4.736-12.576-7.104-20-7.104-7.488 0-14.112 2.336-19.904 7.008s-10.592 14.016-14.4 28.096-5.696 39.936-5.696 77.536 2.112 64.384 6.368 80.256c3.2 12.256 7.744 20.736 13.632 25.472 5.856 4.736 12.512 7.104 20 7.104 7.424 0 14.048-2.368 19.872-7.104 5.792-4.736 10.56-14.144 14.368-28.224s5.76-39.936 5.76-77.536-2.112-64.256-6.368-80z" />
<glyph unicode="&#xe60a;" d="M512 864c-229.76 0-416-186.24-416-416s186.24-416 416-416 416 186.24 416 416-186.24 416-416 416zM568.224 238.848h-79.008v297.76c-28.832-26.912-62.848-46.816-102.016-59.744v71.488c20.608 6.752 43.008 19.584 67.168 38.464 24.192 18.88 40.736 40.896 49.76 66.048h64.096v-414.016z" />
<glyph unicode="&#xe60b;" d="M512 864c-229.76 0-416-186.24-416-416s186.24-416 416-416 416 186.24 416 416-186.24 416-416 416zM650.944 306.368v-73.504h-276.992c2.976 27.744 11.968 54.016 26.976 78.88 14.976 24.832 44.576 57.824 88.768 98.88 35.552 33.184 57.376 55.68 65.44 67.488 10.88 16.32 16.32 32.448 16.32 48.384 0 17.632-4.704 31.2-14.112 40.672s-22.4 14.208-39.008 14.208c-16.384 0-29.44-4.992-39.136-14.944s-15.296-26.464-16.736-49.568l-79.008 7.904c4.672 43.488 19.36 74.72 44.096 93.696 24.704 18.944 55.648 28.416 92.736 28.416 40.64 0 72.576-10.976 95.808-32.896 23.232-21.952 34.848-49.216 34.848-81.824 0-18.56-3.328-36.224-9.984-52.992s-17.184-34.368-31.616-52.704c-9.568-12.16-26.848-29.728-51.872-52.608-24.992-22.848-40.832-38.016-47.488-45.504-6.656-7.52-12.032-14.816-16.16-21.952h157.12z" />
<glyph unicode="&#xe60c;" d="M512 864c-229.76 0-416-186.24-416-416s186.24-416 416-416 416 186.24 416 416-186.24 416-416 416zM607.84 276.576c-26.432-25.504-59.328-38.208-98.752-38.208-37.312 0-68.256 10.72-92.8 32.16-24.608 21.44-38.848 49.44-42.784 84.064l76.512 9.248c2.432-19.424 8.992-34.272 19.712-44.576 10.656-10.272 23.616-15.424 38.816-15.424 16.32 0 30.048 6.208 41.248 18.624 11.136 12.384 16.704 29.088 16.704 50.112 0 19.872-5.344 35.68-16.032 47.328-10.72 11.648-23.744 17.44-39.136 17.44-10.144 0-22.24-1.984-36.352-5.888l8.704 63.904c21.376-0.576 37.696 4.064 48.928 13.888s16.832 22.88 16.832 39.168c0 13.856-4.096 24.864-12.32 33.12-8.256 8.224-19.168 12.352-32.8 12.352-13.472 0-24.928-4.672-34.464-14.016-9.536-9.376-15.328-23.040-17.408-40.992l-72.992 12.352c5.056 25.024 12.704 45.024 22.944 60s24.48 26.72 42.752 35.296 38.784 12.832 61.472 12.832c38.816 0 69.952-12.384 93.376-37.152 19.328-20.256 28.96-43.136 28.96-68.64 0-36.192-19.808-65.088-59.456-86.656 23.648-5.056 42.56-16.416 56.704-34.016 14.176-17.632 21.248-38.88 21.248-63.808 0.032-36.224-13.184-67.040-39.616-92.512z" />
<glyph unicode="&#xe60d;" d="M523.488 397.344v140.96l-95.072-140.96h95.072zM512 864c-229.76 0-416-186.24-416-416s186.24-416 416-416 416 186.24 416 416-186.24 416-416 416zM651.008 328.352h-51.008v-83.040h-76.512v83.040h-168.992v68.704l179.136 262.272h66.368v-261.984h51.008v-68.992z" />
<glyph unicode="&#xe60e;" d="M512 864c-229.76 0-416-186.24-416-416s186.24-416 416-416 416 186.24 416 416-186.24 416-416 416zM625.472 298.24c-26.848-36.384-64.096-54.56-111.744-54.56-38.080 0-69.12 10.208-93.152 30.688-24 20.512-38.368 48.064-43.072 82.624l79.008 8.192c2.24-17.888 8.896-32 19.936-42.368 11.040-10.432 23.744-15.616 38.144-15.616 16.48 0 30.368 6.688 41.824 20.064 11.36 13.376 17.088 33.568 17.088 60.576 0 25.28-5.696 44.256-17.024 56.896-11.36 12.64-26.176 18.976-44.416 18.976-22.72 0-43.136-9.984-61.152-30.016l-63.904 9.248 40.512 214.752h208.992v-73.984h-149.056l-12.704-70.144c17.696 8.736 35.744 13.152 54.176 13.152 35.168 0 64.96-12.768 89.44-38.272 24.448-25.504 36.672-58.624 36.672-99.296-0.032-33.984-9.888-64.288-29.568-90.912z" />
<glyph unicode="&#xe60f;" d="M513.984 446.816c-15.232 0-28.064-5.952-38.56-17.856-10.528-11.904-15.776-29.472-15.776-52.704 0-25.696 5.92-45.504 17.76-59.456 11.808-13.984 25.312-20.96 40.544-20.96 14.624 0 26.848 5.76 36.608 17.184s14.624 30.144 14.624 56.224c0 26.816-5.248 46.432-15.744 58.912s-23.68 18.656-39.456 18.656zM512 864c-229.76 0-416-186.24-416-416s186.24-416 416-416 416 186.24 416 416-186.24 416-416 416zM609.504 268.576c-24.736-25.504-56.576-38.208-95.36-38.208-41.664 0-75.904 16.16-102.72 48.512-26.848 32.352-40.256 85.344-40.256 159.040 0 75.552 14.016 130.016 41.984 163.392 27.936 33.376 64.256 50.048 108.928 50.048 31.328 0 57.28-8.8 77.824-26.4 20.576-17.632 33.664-43.168 39.296-76.672l-76.512-8.416c-1.888 15.68-6.784 27.296-14.656 34.752-7.904 7.488-18.144 11.232-30.752 11.232-16.736 0-30.912-7.456-42.464-22.432-11.552-14.944-18.848-46.080-21.856-93.44 19.68 23.232 44.192 34.848 73.504 34.848 33.024 0 61.312-12.544 84.864-37.632s35.328-57.504 35.328-97.216c0-42.176-12.384-75.968-37.152-101.408z" />
<glyph unicode="&#xe610;" d="M512 864c-229.76 0-416-186.24-416-416s186.24-416 416-416 416 186.24 416 416-186.24 416-416 416zM652.352 581.504c-22.304-21.984-44.96-53.472-68-94.56s-40.608-84.736-52.672-131.008c-12.064-46.24-17.984-87.552-17.824-123.936h-76c1.28 56.992 13.024 115.2 35.232 174.464 22.144 59.296 51.744 112.32 88.8 159.040h-180.032v73.504h270.496v-57.504z" />
<glyph unicode="&#xe611;" d="M518.848 426.816c-19.328 0-33.696-6.688-43.168-20.128-9.472-13.408-14.176-27.936-14.176-43.616 0-21.952 5.568-39.040 16.704-51.328s25.056-18.432 41.76-18.432c16.32 0 29.824 5.952 40.512 17.76s16.032 28.832 16.032 51.168c0 19.456-5.44 35.104-16.32 46.912-10.88 11.776-24.672 17.664-41.344 17.664zM517.728 489.344c14.944 0 26.88 4.48 35.84 13.376 8.928 8.928 13.44 21.28 13.44 37.056 0 14.848-4.448 26.72-13.312 35.648s-20.576 13.376-35.136 13.376c-15.136 0-27.168-4.512-36.128-13.504-8.96-9.024-13.44-20.96-13.44-35.808 0-15.776 4.448-28.096 13.28-36.928 8.896-8.8 20.704-13.216 35.456-13.216zM512 864c-229.76 0-416-186.24-416-416s186.24-416 416-416 416 186.24 416 416-186.24 416-416 416zM618.080 265.632c-24.288-23.872-56.576-35.808-96.832-35.808-37.504 0-68.672 9.888-93.632 29.632-29.408 23.328-44.128 55.264-44.128 95.872 0 22.336 5.536 42.88 16.64 61.568 11.072 18.688 28.544 33.12 52.384 43.296-20.448 8.608-35.328 20.448-44.576 35.52-9.312 15.072-13.952 31.552-13.952 49.536 0 30.688 10.72 56.032 32.192 76.064 21.472 20 52 30.016 91.552 30.016 39.2 0 69.632-10.016 91.264-30.016 21.696-20.032 32.512-45.376 32.512-76.064 0-19.104-4.96-36.064-14.912-50.944-9.984-14.848-23.936-26.24-41.952-34.080 22.816-9.216 40.16-22.656 52.032-40.32s17.824-38.048 17.824-61.152c0-38.24-12.16-69.248-36.416-93.12z" />
<glyph unicode="&#xe612;" d="M509.76 593.824c-14.688 0-26.88-5.76-36.576-17.248-9.696-11.52-14.528-30.368-14.528-56.576 0-26.56 5.28-46.048 15.808-58.496 10.528-12.48 23.712-18.688 39.488-18.688 15.264 0 28.096 6.016 38.528 17.984s15.648 29.568 15.648 52.768c0 25.44-5.888 45.184-17.632 59.232s-25.344 21.024-40.736 21.024zM512 864c-229.76 0-416-186.24-416-416s186.24-416 416-416 416 186.24 416 416-186.24 416-416 416zM614.816 287.904c-27.872-33.408-64.192-50.080-108.896-50.080-32.224 0-58.208 8.64-78.048 25.824-19.84 17.248-32.576 42.976-38.176 77.216l76.512 8.48c1.888-15.616 6.752-27.2 14.592-34.72 7.808-7.52 18.176-11.296 31.104-11.296 16.256 0 30.080 7.488 41.504 22.56 11.36 15.072 18.656 46.208 21.856 93.536-19.904-23.072-44.768-34.592-74.624-34.592-32.48 0-60.512 12.512-84.064 37.504-23.552 25.024-35.328 57.568-35.328 97.664 0 41.76 12.448 75.424 37.28 100.992 24.864 25.568 56.544 38.336 95.008 38.336 41.824 0 76.16-16.192 103.008-48.544 26.816-32.352 40.224-85.6 40.224-159.68-0.096-75.424-14.048-129.792-41.952-163.2z" />
<glyph unicode="&#xe613;" d="M535.616 592.704c-7.456 6.080-16 9.152-25.632 9.152s-18.208-3.072-25.76-9.152c-7.552-6.112-13.408-17.024-17.568-32.768-5.472-20.448-8.192-54.848-8.192-103.232s2.432-81.632 7.328-99.712 11.104-30.112 18.528-36.16c7.456-6.016 16-8.96 25.632-8.96s18.176 3.040 25.76 9.12 13.376 17.024 17.568 32.768c5.44 20.256 8.192 54.56 8.192 102.944s-2.432 81.632-7.36 99.712c-4.896 18.080-11.040 30.176-18.496 36.288zM512 864c-229.76 0-416-186.24-416-416s186.24-416 416-416 416 186.24 416 416-186.24 416-416 416zM603.456 288.544c-22.336-28.128-53.504-42.176-93.472-42.176-40.16 0-72.544 15.392-97.12 46.24s-36.864 85.824-36.864 164.928c0 77.632 13.504 133.504 40.544 167.616 22.336 28.128 53.504 42.176 93.472 42.176s71.232-14.24 93.76-42.752c26.816-33.76 40.256-89.696 40.256-167.904-0.032-77.984-13.568-134.048-40.576-168.128z" />
<glyph unicode="&#xe614;" d="M876.64 444.416l-391.2 388.512h-356.512l-0.832-356.064 386.496-394.528c25.408-25.408 66.272-25.76 91.296-0.736l271.488 271.52c24.992 24.992 24.672 65.888-0.736 91.296zM223.424 671.872c0 35.328 28.672 64 64 64s64-28.672 64-64c0-35.36-28.672-64-64-64s-64 28.64-64 64zM571.616 225.536l-248.896 248.896 22.624 22.624 248.896-248.896-22.624-22.624zM639.488 293.408l-248.896 248.896 22.656 22.624 248.864-248.896-22.624-22.624zM707.36 361.312l-248.864 248.896 22.624 22.624 248.864-248.896-22.624-22.624z" />
<glyph unicode="&#xe615;" d="M925.056 333.568l-297.952-297.952c-25.312-25.312-66.368-25.312-91.68 0l-365.248 365.28-90.24 279.328 65.92 65.92 126.304-126.304c-3.392-24.32 3.968-49.824 22.656-68.512 31.648-31.648 82.944-31.648 114.592 0 31.616 31.648 31.616 82.944 0 114.592-18.688 18.688-44.192 26.016-68.512 22.656l-126.304 126.304 64.448 64.48 280.768-88.8 365.248-365.28c25.312-25.344 25.312-66.368 0-91.712zM363.552 597.152c-6.336-6.336-16.576-6.336-22.912 0l-252.128 252.128c-6.336 6.336-6.336 16.608 0 22.912s16.608 6.336 22.912 0l252.096-252.096c6.368-6.336 6.368-16.608 0.032-22.944z" />
<glyph unicode="&#xe616;" d="M810.56 645.12l-112-193.984c-17.696-30.592-56.8-41.088-87.424-23.392l-27.68 16 32 55.392c15.296-8.8 34.88-3.584 43.68 11.712l80 138.56c8.832 15.328 3.584 34.88-11.68 43.712l-110.88 64c-15.328 8.832-34.88 3.584-43.68-11.712l-80-138.56c-8.864-15.328-3.616-34.88 11.68-43.712l-32-55.392-27.68 16c-30.624 17.664-41.12 56.8-23.424 87.392l112 193.984c17.696 30.624 56.8 41.088 87.424 23.424l166.24-96c30.624-17.664 41.12-56.8 23.424-87.424zM432 309.44c-15.328 8.832-20.576 28.416-11.712 43.712l128 221.696c8.832 15.328 28.416 20.576 43.712 11.712s20.576-28.416 11.68-43.712l-128-221.696c-8.8-15.296-28.352-20.512-43.68-11.712zM408.576 396.832v0c-15.328 8.832-34.88 3.584-43.712-11.68l-80-138.56c-8.832-15.328-3.584-34.88 11.712-43.712l110.88-64c15.296-8.832 34.88-3.584 43.68 11.712l80 138.56c8.832 15.296 3.584 34.88-11.68 43.712v0l32 55.392 27.68-16c30.624-17.664 41.12-56.768 23.424-87.392l-112-193.984c-17.696-30.624-56.8-41.088-87.424-23.424l-166.272 96c-30.624 17.696-41.12 56.8-23.424 87.424l112 193.984c17.696 30.624 56.832 41.12 87.456 23.424l27.68-16-32-55.456z" />
<glyph unicode="&#xe617;" d="M451.872 759.84l-240-415.68c-13.248-22.976 31.424-73.568 31.424-73.568l288 498.816c0 0-66.176 13.408-79.424-9.568zM528 475.712c22.944-13.248 52.32-5.376 65.568 17.568l128 221.696c13.248 22.976 5.376 52.32-17.568 65.6-22.944 13.248-52.32 5.376-65.568-17.568l-128-221.696c-13.248-22.976-5.376-52.352 17.568-65.6zM496 420.288c-22.976 13.248-52.32 5.376-65.568-17.568l-128-221.728c-13.248-22.944-5.408-52.32 17.568-65.568 22.944-13.248 52.32-5.376 65.568 17.568l128 221.728c13.248 22.976 5.376 52.32-17.568 65.568zM780.672 625.408l-288-498.816c0 0 66.176-13.408 79.424 9.568l240 415.68c13.28 22.976-31.424 73.568-31.424 73.568z" />
<glyph unicode="&#xe618;" d="M160 0v768l133.344 128h405.344l133.312-128v-768h-672zM800 256v480h-608v-704h608v224zM768 512h-544v192h544v-192zM576 640h-160v-32h160v32zM768 288h-544v192h544v-192zM576 416h-160v-32h160v32zM768 64h-544v192h544v-192zM576 192h-160v-32h160v32z" />
<glyph unicode="&#xe619;" d="M160-32v800l133.344 128h405.344l133.312-128v-800h-672zM192 0h608v736h-608v-736zM224 352h544v-320h-544v320zM416 224v-32h160v96h-32v-64h-96v64h-32v-64zM224 704h544v-320h-544v320zM416 544h160v96h-32v-64h-96v64h-32v-96z" />
<glyph unicode="&#xe61a;" d="M864-32h-704c-35.328 0-64 28.672-64 64v704c0 35.36 28.672 64 64 64h64v-32c0-53.024 42.976-96 96-96 52.992 0 96 42.976 96 96v32h192v-32c0-53.024 43.008-96 96-96s96 42.976 96 96v32h64c35.328 0 64-28.64 64-64v-704c0-35.328-28.672-64-64-64zM864 576h-704v-544h704v544zM320 416h-96v96h96v-96zM320 256h-96v96h96v-96zM320 96h-96v96h96v-96zM480 416h-96v96h96v-96zM480 256h-96v96h96v-96zM480 96h-96v96h96v-96zM640 416h-96v96h96v-96zM640 256h-96v96h96v-96zM640 96h-96v96h96v-96zM800 416h-96v96h96v-96zM800 256h-96v96h96v-96zM800 96h-96v96h96v-96zM703.008 704c-34.816 0-63.008 28.224-63.008 63.008v65.984c0 34.816 28.192 63.008 63.008 63.008s63.008-28.192 63.008-63.008v-65.984c0-34.784-28.192-63.008-63.008-63.008zM319.008 704c-34.816 0-63.008 28.224-63.008 63.008v65.984c0 34.816 28.192 63.008 63.008 63.008s63.008-28.192 63.008-63.008v-65.984c0-34.784-28.224-63.008-63.008-63.008z" />
<glyph unicode="&#xe61b;" d="M896 0h-768c-35.328 0-64 28.672-64 64v672c0 35.328 28.672 64 64 64h64v-32c0-53.024 42.976-96 96-96s96 42.976 96 96v32h256v-32c0-53.024 43.008-96 96-96s96 42.976 96 96v32h64c35.328 0 64-28.672 64-64v-672c0-35.328-28.672-64-64-64zM896 576h-768v-512h768v512zM418.208 325.472c6.304 10.048 9.472 20.672 9.472 31.776 0 24.736-13.312 37.12-39.936 37.12-23.136 0-45.248-9.184-66.368-27.552v52.128c23.36 15.136 49.76 22.688 79.136 22.688 27.488 0 48.96-6.912 64.416-20.704s23.168-32.48 23.168-55.968c0-31.36-18.816-63.808-56.448-97.312l-55.328-49.12v-1.12h109.12v-49.12h-176.992v46.112l77.056 73.696c15.488 14.848 26.4 27.296 32.704 37.376zM634.784 218.688c8.448 6.496 12.672 15.552 12.672 27.2 0 12-5.216 21.248-15.648 27.744s-24.768 9.76-43.040 9.76h-24.192v45.376h22.304c35.008 0 52.512 11.616 52.512 34.88 0 21.888-13.44 32.8-40.32 32.8-17.984 0-35.488-5.824-52.512-17.44v48.384c18.88 9.504 40.864 14.24 65.984 14.24 27.488 0 48.896-6.176 64.224-18.56s22.976-28.448 22.976-48.192c0-35.136-17.824-57.12-53.44-65.984v-0.928c19.008-2.368 33.984-9.28 44.992-20.704s16.512-25.472 16.512-42.080c0-25.12-9.184-44.992-27.552-59.616s-43.744-21.952-76.128-21.952c-27.744 0-50.304 4.512-67.68 13.504v51.552c17.984-13.12 39.008-19.68 63.008-19.68 15.104-0.064 26.88 3.2 35.328 9.696zM735.008 704c-34.816 0-63.008 28.192-63.008 63.008v65.984c0 34.816 28.192 63.008 63.008 63.008s63.008-28.192 63.008-63.008v-65.984c0-34.816-28.192-63.008-63.008-63.008zM287.008 704c-34.816 0-63.008 28.192-63.008 63.008v65.984c0 34.816 28.192 63.008 63.008 63.008s63.008-28.192 63.008-63.008v-65.984c0-34.816-28.224-63.008-63.008-63.008z" />
<glyph unicode="&#xe61c;" d="M352 864h-64v-128h64v128zM704 704h-64v-64h64v64zM352 704h-64v-64h64v64zM734.016 768l1.984-160h-128v160h-224v-160h-128v160h-96v-768h672v768h-97.984zM352 97.984h-96v96h96v-96zM352 225.984h-96v96h96v-96zM352 353.984h-96v96h96v-96zM480 97.984h-96v96h96v-96zM480 225.984h-96v96h96v-96zM480 353.984h-96v96h96v-96zM608 97.984h-96v96h96v-96zM608 225.984h-96v96h96v-96zM608 353.984h-96v96h96v-96zM736 97.984h-96v96h96v-96zM736 225.984h-96v96h96v-96zM736 353.984h-96v96h96v-96zM704 864h-64v-128h64v128z" />
<glyph unicode="&#xe61d;" d="M670.016 831.008h-446.016v-766.016h320v64h-256v638.016h320v-96h128v-352h64v385.984l-129.984 126.016zM736 255.008h-64v-64h-64v-64h64v-62.016h64v64h64v62.016h-64v64z" />
<glyph unicode="&#xe61e;" d="M670.016 831.008h-446.016v-766.016h320v64h-256v638.016h320v-96h128v-352h64v385.984l-129.984 126.016zM608 159.008l192 1.984v62.016h-192v-64z" />
<glyph unicode="&#xe61f;" d="M352 480h32v32h-32v-32zM352 384h32v32h-32v-32zM352 576h32v32h-32v-32zM352 288h32v32h-32v-32zM352 192h32v32h-32v-32zM416 384h256v32h-256v-32zM416 576h256v32h-256v-32zM670.016 832h-446.016v-768h576v640l-129.984 128zM736 129.984h-448v638.016h320v-94.016h128v-544zM416 288h256v32h-256v-32zM416 480h256v32h-256v-32zM416 192h256v32h-256v-32z" />
<glyph unicode="&#xe620;" d="M543.488 446.496h-256v-28.992h256v28.992zM543.488 350.496h-256v-31.008h256v31.008zM384.512 831.488v-96.512h-97.024v-96.512h-94.496v-606.016h447.008v96.992h94.496v94.016h96.512v608h-446.496zM608.992 63.488h-384.992v546.016h384.992v-546.016zM703.488 158.496h-63.488v480h-321.504v65.504h384.992v-545.504zM800 254.496h-65.504v480.512h-319.008v65.504h384.512v-546.016zM543.488 159.008h-256v-31.008h256v31.008zM543.488 255.488h-256v-31.008h256v31.008zM543.968 543.488h-256v-32h256v32z" />
<glyph unicode="&#xe621;" d="M703.968 832h-384c-35.328 0-63.968-28.672-63.968-64v-640c0-35.328 28.64-64 63.968-64h384c35.36 0 64.032 28.672 64.032 64v640c0 35.328-28.672 64-64.032 64zM416 800h160l1.984-32h-161.984v32zM511.328 112c-17.664 0-32 14.304-32 32s14.336 32 32 32c17.696 0 32-14.304 32-32s-14.336-32-32-32zM703.968 224h-384l0.672 512h383.328v-512z" />
<glyph unicode="&#xe622;" d="M736.032 832h-480c-35.36 0-64.032-28.672-64.032-64v-640c0-35.328 28.672-64 64.032-64h480c35.328 0 63.968 28.672 63.968 64v640c0 35.328-28.64 64-63.968 64zM496 96c-17.664 0-31.968 14.304-31.968 32s14.304 32 31.968 32c17.696 0 32.032-14.304 32.032-32s-14.336-32-32.032-32zM735.712 193.984h-480.832v573.184h480.832v-573.184z" />
<glyph unicode="&#xe623;" d="M896 832h-768c-35.36 0-64-28.672-64-64v-640c0-35.328 28.64-64 64-64h768c35.328 0 64 28.672 64 64v640c0 35.328-28.672 64-64 64zM369.984 784c17.664 0 31.968-14.336 31.968-32s-14.304-32-31.968-32c-17.696 0-32 14.336-32 32s14.336 32 32 32zM272 784c17.664 0 32-14.336 32-32s-14.336-32-32-32c-17.696 0-32 14.336-32 32s14.304 32 32 32zM175.968 784c17.696 0 32-14.336 32-32s-14.304-32-32-32c-17.664 0-31.968 14.336-31.968 32s14.304 32 31.968 32zM896 128h-768v543.328h768v-543.328zM896 735.328h-448v32h448v-32z" />
<glyph unicode="&#xe624;" d="M544 161.984h-96v-49.984l-96-16v-32h286.016v30.016l-94.016 17.984v49.984zM864 832h-736c-35.36 0-64-28.64-64-64v-448c0-35.328 28.64-64 64-64h736c35.36 0 64 28.672 64 64v448c0 35.36-28.64 64-64 64zM492 304c-17.664 0-32 14.336-32 32 0 17.696 14.336 32 32 32 17.696 0 32-14.304 32-32 0-17.664-14.336-32-32-32zM864 416h-736v352h736v-352z" />
<glyph unicode="&#xe625;" d="M704 832h-384c-35.36 0-64-28.672-64-64v-640c0-35.328 28.64-64 64-64h384c35.328 0 64 28.672 64 64v640c0 35.328-28.672 64-64 64zM512 128c-61.888 0-112 50.144-112 112 0 61.888 50.112 112 112 112 61.856 0 112-50.112 112-112 0-61.856-50.144-112-112-112zM704 416h-384l0.672 352h383.328v-352zM512 304c-35.328 0-64-28.672-64-64s28.672-64 64-64 64 28.672 64 64-28.672 64-64 64z" />
<glyph unicode="&#xe626;" d="M896 736l-480.128-0.544 0.128 94.56-256 1.984v-96h-64c-35.328 0-64-28.672-64-64v-544c0-35.328 28.672-64 64-64h800c35.328 0 64 28.672 64 64v544c0 35.328-28.672 64-64 64zM224 768h128v-96h-128v96zM384 161.344c-123.712 0-224 100.288-224 224s100.288 224 224 224c123.68 0 224-100.288 224-224s-100.32-224-224-224zM816 527.328c-35.36 0-64 28.64-64 64 0 35.328 28.64 64 64 64 35.328 0 64-28.672 64-64s-28.672-64-64-64zM384 524c-79.52 0-144-64.48-144-144s64.48-144 144-144 144 64.48 144 144-64.48 144-144 144z" />
<glyph unicode="&#xe627;" d="M896 704h-190.016c0 0-1.984 3.808-1.984 48s-35.808 80-80 80h-256c-44.192 0-80-35.808-80-80s1.984-48 1.984-48h-193.984c-35.328 0-64-28.672-64-64v-512c0-35.328 28.672-64 64-64h800c35.328 0 64 28.672 64 64v512c0 35.328-28.672 64-64 64zM497.44 192.864c-106.048 0-192 85.952-192 192 0 106.016 85.952 192 192 192 106.016 0 192-85.952 192-192s-85.984-192-192-192z" />
<glyph unicode="&#xe628;" d="M970.72 113.76c-4.096 7.072-17.216 9.248-39.392 6.464-40.8-5.28-70.432 8.032-88.896 40.032-13.984 24.192-17.6 48.512-10.848 72.96s26.752 59.328 59.968 104.704l20.768 28.928c61.696 85.216 74.336 159.328 37.952 222.4-37.024 64.192-144 58.784-220.896 25.792-62.208 128.288-193.28 216.96-345.376 216.96-212.096 0-384-171.936-384-384s171.904-384 384-384c212.064 0 384 171.936 384 384 0 47.008-8.864 91.872-24.32 133.472 25.952 9.312 56.992 16.064 86.272 17.152 38.464 1.408 73.28-6.656 87.104-30.592 30.816-53.408 15.936-116.512-44.64-189.216l-12.416-14.912c-70.848-85.024-87.776-159.488-50.912-223.424 14.912-25.792 38.624-44.192 71.2-55.264 32.576-11.040 60.128-9.984 82.72 3.072 11.2 6.464 13.792 14.976 7.712 25.472zM208 366.016c-44.192 0-80 35.808-80 80 0 44.16 35.808 80 80 80s80-35.808 80-80c0-44.192-35.808-80-80-80zM384 190.016c-44.192 0-80 35.808-80 80s35.808 80 80 80 80-35.808 80-80-35.808-80-80-80zM352.64 446.016c0 17.664 14.368 32 32.032 32s32-14.304 32-32c0-17.696-14.336-32-32-32s-32.032 14.304-32.032 32zM384 542.016c-44.192 0-80 35.808-80 80 0 44.16 35.808 80 80 80s80-35.808 80-80c0-44.192-35.808-80-80-80zM560 366.016c-44.192 0-80 35.808-80 80 0 44.16 35.808 80 80 80s80-35.808 80-80c0-44.192-35.808-80-80-80z" />
<glyph unicode="&#xe629;" d="M737.76 675.008c17.824 0 32.256-14.432 32.256-32.256l-58.464-642.976c0-17.824-14.432-32.256-32.256-32.256h-334.624c-17.824 0-32.256 14.432-32.256 32.256l-58.4 642.976c0 17.824 14.432 32.256 32.256 32.256h288.32l34.112 173.952 154.848 79.52-11.136-41.536-114.944-57.632-30.016-154.304h130.304zM560.448 449.248h128.928l-36.288-417.216h-282.176l-36.288 417.216h192.928l40.288 193.504h-281.6l58.432-642.976h334.592l58.464 642.976h-137.024l-40.256-193.504z" />
<glyph unicode="&#xe62a;" d="M782.784 672.608h-575.008l0.576 61.888h45.952l97.248 95.84h291.488l95.264-95.84h45.952l-1.472-61.888zM545.184 766.432h-95.84v-31.936h95.84v31.936zM731.424 415.040h-108.064c-23.84 46.432-71.648 78.528-127.424 78.528s-103.584-32.096-127.392-78.528h-106.176l-20.672 223.616h511.136l-21.408-223.616zM417.408 351.168c0 44.096 35.744 79.872 79.872 79.872 44.096 0 79.84-35.776 79.84-79.872s-35.744-79.872-79.84-79.872c-44.128 0-79.872 35.776-79.872 79.872zM495.936 206.048c57.408 0 106.56 33.888 129.6 82.528h93.792l-24.384-254.912h-397.312l-23.552 254.912h92.288c23.040-48.64 72.16-82.528 129.568-82.528z" />
<glyph unicode="&#xe62b;" d="M849.984 703.328l-335.872-294.816v-382.048l186.912-90.464h-438.048l186.944 90.432v382.080l-339.904 294.816h518.464l103.776 179.808 27.904-16.096-94.496-163.68h184.32zM771.552 673.12l-123.616-0.48-38.080-65.984h87.84l73.856 66.464zM514.112 477.792c18.912 0 34.208 15.328 34.208 34.24s-15.328 34.24-34.208 34.24-34.24-15.328-34.24-34.24c0-18.944 15.36-34.24 34.24-34.24zM188.48 673.12l74.464-66.464h309.728l38.016 65.824-422.208 0.64z" />
<glyph unicode="&#xe62c;" d="M959.488 462.464c-12.096 116.448-130.016 115.776-191.264 113.696 0.288 17.696 0.48 31.968 0.48 31.968l-704.864 0.224c0 0 0-96.448 0-98.848 0-136.992 78.24-255.488 192.352-313.888v-34.176h320.608v34.176c32 16.384 60.704 37.888 86.112 62.752 157.28 37.632 322.24 91.936 296.576 204.096zM712 317.888c35.936 55.2 57.152 120.8 57.152 191.616 0-0.544 0.032 0.928 0.064 3.712 57.12 1.888 120.16 7.584 134.432-49.28 14.336-62.56-90.144-113.504-191.648-146.048zM282.56 736.32c0-32-52.48-66.080-52.48-66.080s102.848 18.368 102.848 66.368-101.984 16-101.984 52 50.464 70.080 50.464 70.080-96.8-20.384-96.8-70.368 97.952-20 97.952-52zM442.56 704.32c0-32-52.48-66.080-52.48-66.080s102.848 18.368 102.848 66.368-101.984 16-101.984 52 50.464 70.080 50.464 70.080-96.832-20.384-96.832-70.368 97.984-20 97.984-52zM570.56 736.32c0-32-52.48-66.080-52.48-66.080s102.848 18.368 102.848 66.368-101.984 16-101.984 52 50.464 70.080 50.464 70.080-96.832-20.384-96.832-70.368 97.984-20 97.984-52zM61.856 130.304c0-44.192 157.6-80 352-80s352 35.808 352 80c0-0.928-704-0.928-704 0z" />
<glyph unicode="&#xe62d;" d="M824.352 159.84h-87.168v-69.248c0-49.472-44.096-89.536-93.568-89.536h-329.856c-49.472 0-89.568 40.064-89.568 89.536v483.2h95.936v-476.96h63.616l0.064 476.96c17.088-12.32 42.688-21.472 64.256-26.336v-450.656h63.616v448.8c23.84 3.936 45.696 12.896 64.512 25.824v-474.624h63.616v476.992h184.512c39.552 0 71.648-32.064 71.648-71.648v-270.624c0.032-39.584-32.064-71.68-71.616-71.68zM831.712 511.68h-94.56v-287.52h94.56v287.52zM679.104 603.456c-31.328 0-59.616 12.512-80.544 32.672-25.984-36.704-68.544-60.864-116.896-60.864-46.624 0-87.616 22.624-113.824 57.088-20.736-19.168-48.256-31.136-78.72-31.136-56.16 0-103.008 39.776-113.984 92.672-17.088 11.2-28.384 30.464-28.384 52.384 0 34.624 28.064 62.688 62.688 62.688 2.56 0 5.024-0.448 7.488-0.736 19.36 15.392 43.488 25.12 70.048 25.632 11.936 35.392 45.056 61.088 84.512 61.088 30.368 0 57.088-15.2 73.312-38.304 11.776 3.2 24.032 5.184 36.832 5.184 13.376 0 26.112-2.24 38.368-5.728 16.16 23.424 43.136 38.848 73.728 38.848 38.624 0 71.232-24.576 83.808-58.816 0.544 0 0.992 0.16 1.536 0.16 64.32 0 116.448-52.128 116.448-116.416s-52.128-116.416-116.416-116.416z" />
<glyph unicode="&#xe62e;" d="M665.728 616.256c46.336 115.84-57.248 134.944-57.248 133.568 32.704 81.792-32.704 136.32-92.672 136.32s-57.248-27.296-57.248-27.296 32.704 6.816 32.704-19.072c0-25.92-30.016-24.544-59.968-54.528-30.016-29.984-15.68-25.92-17.728-25.92 62.336 4.096 98.816-60.32 167.648-36.768-68.16-34.080-84.512 20.096-158.112 22.816-9.536 0-64.064 10.56-64.064-93.696 79.744-9.216 114.496-64.064 222.176-51.808-121.312-44.96-273.28 141.088-294.4-62.688 0-43.616 32.672-65.536 32.672-65.536s377.568 0 376.224 0c74.944 32.704 38.176 151.424-29.984 144.608zM514.304-32l170.496 482.208h-344.736l174.24-482.208z" />
<glyph unicode="&#xe62f;" d="M816 672c-9.44 0-18.56-1.184-27.424-3.104-3.936 58.272-51.968 104.448-111.232 104.448-13.28 0-25.856-2.72-37.664-6.976-36.8 58.496-101.504 97.632-175.68 97.632-112.704 0-203.936-89.824-207.36-201.696-15.008 6.176-31.392 9.696-48.64 9.696-70.688 0-128-57.312-128-128 0-68.864 54.496-124.608 122.656-127.424l51.328 51.328 51.904-51.904h24.256l51.872 51.904 51.872-51.904h24.256l51.872 51.904 51.872-51.904h24.256l51.872 51.904 51.872-51.904h24.256l51.872 51.904 51.712-51.712c69.856 0.928 126.272 57.696 126.272 127.808 0 70.688-57.312 128-128 128zM768 429.888l-45.888-45.888h-40.256l-43.872 43.872-43.872-43.872h-40.256l-43.872 43.872-43.872-43.872h-40.256l-43.872 43.872-43.872-43.872h-40.224l-43.872 43.872-43.904-43.872h-2.112l84.8-352h436l87.2 352h-2.112l-45.888 45.888zM368 64l-66.656 288h32l66.656-288h-32zM432 64l-33.984 288h32l33.984-288h-32zM528 64h-32v288h32v-288zM560 64l33.984 288h32l-33.984-288h-32zM656 64h-32l65.984 288h32l-65.984-288z" />
<glyph unicode="&#xe630;" d="M691.2 704h-352l-211.2-288v-160c0-35.328 28.672-64 64-64h640c35.328 0 64 28.672 64 64v160l-204.8 288zM718.88 415.264l-65.664-96.064-274.816 0.64-70.464 95.808-130.752 0.768 181.216 255.168h313.6l179.2-255.2-132.32-1.12z" />
<glyph unicode="&#xe631;" d="M691.2 704h-352l-211.2-288v-160c0-35.328 28.672-64 64-64h640c35.328 0 64 28.672 64 64v160l-204.8 288zM718.88 415.264l-65.664-96.064-274.816 0.64-70.464 95.808-130.752 0.768 181.184 255.2h313.632l179.2-255.2-132.32-1.152zM556 608c0 17.664-10.336 32-28 32-17.696 0-30.016-14.336-30.016-32v-126.016l-77.984-1.984 108-121.984 105.984 121.984-78.016 1.984v126.016z" />
<glyph unicode="&#xe632;" d="M691.2 704h-352l-211.2-288v-160c0-35.328 28.672-64 64-64h640c35.328 0 64 28.672 64 64v160l-204.8 288zM718.88 415.296l-65.664-96.096-274.848 0.64-70.432 95.84-130.752 0.736 181.184 255.2h313.632l179.2-255.2-132.32-1.12zM420 512l78.016-1.984v-126.016c0-17.696 12.32-32 30.016-32 17.664 0 28 14.304 28 32v126.016l77.952 1.984-105.984 121.984-108-121.984z" />
<glyph unicode="&#xe633;" d="M512 864c-229.76 0-416-186.24-416-416s186.24-416 416-416 416 186.24 416 416-186.24 416-416 416zM744.256 566.176l-303.552-303.52c-7.616-7.584-19.936-7.584-27.552 0l-6.112 6.112-0.032-0.032-167.008 168.192c-7.616 7.616-7.616 19.968 0 27.584l41.408 41.376c7.616 7.616 19.968 7.616 27.584 0l118.048-118.912 248.192 248.192c7.616 7.616 19.968 7.616 27.584 0l41.408-41.408c7.648-7.584 7.648-19.936 0.032-27.584z" />
<glyph unicode="&#xe634;" d="M698.24 543.040l-32.064 32.064c-5.92 5.92-15.488 5.92-21.376 0l-192.448-192.416-91.488 92.224c-5.952 5.92-15.488 5.92-21.44 0l-32.064-32.096c-5.92-5.92-5.92-15.488 0-21.376l134.176-135.136c5.92-5.888 15.488-5.888 21.376 0l235.328 235.328c5.952 5.92 5.952 15.488 0 21.408zM512 864c-229.76 0-416-186.24-416-416s186.24-416 416-416 416 186.24 416 416-186.24 416-416 416zM512 128c-176.704 0-320 143.296-320 320 0 176.736 143.296 320 320 320 176.736 0 320-143.264 320-320 0-176.704-143.264-320-320-320z" />
<glyph unicode="&#xe635;" d="M512 32c-229.76 0-416 186.24-416 416s186.24 416 416 416 416-186.24 416-416-186.24-416-416-416zM702.752 569.312c7.808 7.808 7.808 20.512 0 28.32l-42.496 42.464c-7.808 7.808-20.512 7.808-28.32 0l-120.352-120.352-120.352 120.352c-7.808 7.808-20.512 7.808-28.32 0l-42.496-42.464c-7.808-7.808-7.808-20.512 0-28.32l120.384-120.384-120.384-120.32c-7.808-7.808-7.808-20.512 0-28.32l42.496-42.496c7.808-7.808 20.512-7.808 28.32 0l120.352 120.384 120.352-120.384c7.808-7.808 20.512-7.808 28.32 0l42.496 42.496c7.808 7.808 7.808 20.512 0 28.32l-120.384 120.32 120.384 120.384z" />
<glyph unicode="&#xe636;" d="M512 32c-229.76 0-416 186.24-416 416s186.24 416 416 416 416-186.24 416-416-186.24-416-416-416zM512 768c-176.704 0-320-143.296-320-320s143.296-320 320-320c176.736 0 320 143.296 320 320s-143.264 320-320 320zM657.184 334.88l-32.448-32.448c-5.952-5.952-15.616-5.952-21.6 0l-91.84 91.84-91.84-91.84c-5.984-5.952-15.616-5.952-21.6 0l-32.448 32.448c-5.952 5.952-5.952 15.616 0 21.6l91.872 91.808-91.872 91.84c-5.952 5.984-5.952 15.648 0 21.632l32.448 32.416c5.984 5.984 15.616 5.984 21.6 0l91.84-91.84 91.84 91.84c5.984 5.984 15.648 5.984 21.6 0l32.448-32.416c5.952-5.984 5.952-15.648 0-21.632l-91.872-91.84 91.872-91.808c5.952-5.984 5.952-15.68 0-21.6z" />
<glyph unicode="&#xe637;" d="M496 16c-229.76 0-416 186.24-416 416s186.24 416 416 416 416-186.24 416-416-186.24-416-416-416zM702.016 449.984c0 17.664-14.336 32-32 32h-128v128c0 17.664-14.304 32-32 32h-32c-17.696 0-32-14.336-32-32v-128h-128c-17.696 0-32-14.336-32-32v-32c0-17.696 14.304-32 32-32h128v-128c0-17.696 14.304-32 32-32h32c17.696 0 32 14.304 32 32v128h128c17.664 0 32 14.304 32 32v32z" />
<glyph unicode="&#xe638;" d="M512 32c-229.76 0-416 186.24-416 416s186.24 416 416 416 416-186.24 416-416-186.24-416-416-416zM512 768c-176.704 0-320-143.264-320-320 0-176.704 143.296-320 320-320 176.736 0 320 143.296 320 320 0 176.736-143.264 320-320 320zM639.616 416h-96v-96c0-17.696-14.336-32-32-32-17.696 0-32 14.304-32 32v96h-96c-17.696 0-32 14.336-32 32s14.304 32 32 32h96v96c0 17.696 14.304 32 32 32 17.664 0 32-14.304 32-32v-96h96c17.664 0 32-14.336 32-32s-14.336-32-32-32z" />
<glyph unicode="&#xe639;" d="M496 848c-229.76 0-416-186.24-416-416s186.24-416 416-416c229.76 0 416 186.24 416 416s-186.24 416-416 416zM704 420c0-17.696-14.336-32-32-32h-352c-17.696 0-32 14.304-32 32v32c0 17.664 14.304 32 32 32h352c17.664 0 32-14.336 32-32v-32z" />
<glyph unicode="&#xe63a;" d="M512 864c-229.76 0-416-186.24-416-416s186.24-416 416-416 416 186.24 416 416-186.24 416-416 416zM512 128c-176.704 0-320 143.296-320 320 0 176.736 143.296 320 320 320 176.736 0 320-143.264 320-320 0-176.704-143.264-320-320-320zM631.616 480h-256c-17.696 0-32-14.336-32-32 0-17.696 14.304-32 32-32h256c17.696 0 32 14.304 32 32 0 17.664-14.304 32-32 32z" />
<glyph unicode="&#xe63b;" d="M496 848c-229.76 0-416-186.24-416-416s186.24-416 416-416 416 186.24 416 416-186.24 416-416 416zM496 196c-26.528 0-48 21.504-48 48s21.472 48 48 48c26.496 0 48-21.504 48-48s-21.504-48-48-48zM544 404c0-26.496-21.504-48-48-48-26.528 0-48 21.504-48 48v224c0 26.528 21.472 48 48 48 26.496 0 48-21.472 48-48v-224z" />
<glyph unicode="&#xe63c;" d="M496 864c-238.592 0-432-193.408-432-432s193.408-432 432-432 432 193.408 432 432-193.408 432-432 432zM496 96c-185.568 0-336 150.432-336 336s150.432 336 336 336 336-150.432 336-336-150.432-336-336-336zM496 640c-26.496 0-48-21.472-48-48v-161.984c0-26.496 21.504-48 48-48s48 21.504 48 48v161.984c0 26.528-21.504 48-48 48zM496 320c-26.496 0-48-21.504-48-48s21.504-48 48-48 48 21.504 48 48-21.504 48-48 48z" />
<glyph unicode="&#xe63d;" d="M831.84 349.824h-42.368c-6.88-24.928-16.736-48.576-29.376-70.496l39.168-39.136c25.056-25.056 25.056-65.696 0-90.752l-22.688-22.688c-25.056-25.056-65.696-25.056-90.752 0l-39.424 39.392c-21.856-12.448-45.408-22.144-70.208-28.896v-41.088c0-35.424-28.704-64.16-64.16-64.16h-32.064c-35.424 0-64.192 28.704-64.192 64.16v41.088c-24.768 6.752-48.352 16.48-70.208 28.896l-39.392-39.392c-25.024-25.056-65.664-25.056-90.72 0l-22.72 22.688c-25.056 25.056-25.056 65.696 0 90.752l39.168 39.136c-12.64 21.952-22.496 45.568-29.408 70.496h-42.336c-35.456 0-64.16 28.704-64.16 64.128v32.096c0 35.424 28.704 64.16 64.16 64.16h41.856c6.624 24.672 16.096 48.16 28.384 69.952l-37.664 37.632c-25.056 25.056-25.056 65.696 0 90.752l22.688 22.656c25.056 25.056 65.696 25.056 90.72 0l36.896-36.896c22.592 13.152 46.976 23.392 72.704 30.4v43.136c0.032 35.456 28.8 64.16 64.224 64.16h32.064c35.424 0 64.16-28.704 64.16-64.16v-43.104c25.792-7.040 50.144-17.28 72.704-30.432l36.896 36.896c25.056 25.056 65.696 25.056 90.752 0l22.688-22.656c25.056-25.056 25.056-65.696 0-90.752l-37.632-37.632c12.288-21.792 21.76-45.28 28.416-69.984h41.856c35.424 0 64.16-28.736 64.16-64.16v-32.096c-0.032-35.392-28.736-64.096-64.192-64.096zM496 605.44c-97.44 0-176.448-79.008-176.448-176.448s79.008-176.448 176.448-176.448 176.448 79.008 176.448 176.448-79.008 176.448-176.448 176.448zM496 350.816c-44.288 0-80.224 35.872-80.224 80.192 0 44.288 35.936 80.192 80.224 80.192s80.192-35.904 80.192-80.192c0-44.32-35.904-80.192-80.192-80.192z" />
<glyph unicode="&#xe63e;" d="M680.576 254.752l22.688 22.688c25.056 25.056 25.056 65.696 0 90.752l-39.168 39.136c12.608 21.952 22.496 45.568 29.376 70.496h42.368c35.424 0 64.16 28.736 64.16 64.16v32.064c0 35.424-28.704 64.16-64.16 64.16h-41.856c-6.656 24.672-16.096 48.16-28.384 69.952l37.664 37.632c25.056 25.056 25.056 65.696 0 90.752l-22.688 22.656c-25.056 25.056-65.696 25.056-90.752 0l-36.896-36.896c-22.56 13.152-46.944 23.392-72.704 30.432v43.104c-0.032 35.456-28.768 64.16-64.192 64.16h-32.064c-35.424 0-64.192-28.704-64.192-64.16v-43.104c-25.76-7.040-50.112-17.28-72.704-30.432l-36.928 36.928c-25.024 25.056-65.664 25.056-90.72 0l-22.688-22.656c-25.056-25.056-25.056-65.696 0-90.752l37.632-37.664c-12.256-21.792-21.76-45.28-28.384-69.984h-41.824c-35.456 0.032-64.16-28.704-64.16-64.16v-32.064c0-35.424 28.704-64.16 64.16-64.16h42.336c6.912-24.928 16.768-48.544 29.408-70.496l-39.168-39.136c-25.056-25.056-25.056-65.696 0-90.752l22.688-22.688c25.056-25.056 65.696-25.056 90.72 0l39.392 39.392c21.888-12.448 45.408-22.144 70.208-28.896v-41.088c0-35.392 28.736-64.16 64.192-64.16h32.064c35.424 0 64.16 28.736 64.16 64.16v41.088c24.8 6.752 48.384 16.48 70.208 28.896l39.392-39.392c25.12-25.024 65.728-25.024 90.816 0.032zM400 380.576c-97.44 0-176.448 78.976-176.448 176.448 0 97.44 79.008 176.448 176.448 176.448s176.448-79.008 176.448-176.448c0-97.472-79.008-176.448-176.448-176.448zM400 639.2c-44.32 0-80.224-35.904-80.224-80.192s35.904-80.192 80.224-80.192c44.288 0 80.192 35.904 80.192 80.192s-35.904 80.192-80.192 80.192zM801.984 36.416c-21.504 0-38.912-17.408-38.912-38.912 0-21.472 17.408-38.88 38.912-38.88 21.472 0 38.912 17.408 38.912 38.88 0 21.504-17.44 38.912-38.912 38.912zM964.864 35.936h-20.288c-3.232 11.968-7.84 23.36-13.792 33.952l18.24 18.24c12.16 12.16 12.16 31.872 0 44l-11.008 11.008c-12.16 12.16-31.84 12.16-44 0l-17.92-17.888c-10.944 6.368-22.784 11.328-35.264 14.752v20.864c0 17.184-13.952 31.136-31.136 31.136h-15.552c-17.184 0-31.136-13.952-31.136-31.136v-20.864c-12.512-3.424-24.32-8.384-35.264-14.752l-17.92 17.888c-12.16 12.16-31.872 12.16-44 0l-11.008-11.008c-12.16-12.128-12.16-31.84 0-44l18.24-18.24c-5.984-10.56-10.56-21.984-13.792-33.952h-20.288c-17.184 0-31.136-13.952-31.136-31.136v-15.552c0-17.184 13.952-31.136 31.136-31.136h20.544c3.328-12.064 8.128-23.52 14.24-34.176l-18.976-18.976c-12.16-12.16-12.16-31.84 0-44.032l11.008-11.008c12.128-12.128 31.84-12.128 44 0l19.104 19.136c10.624-6.016 22.016-10.752 34.048-14.016v-19.936c0-17.184 13.952-31.136 31.136-31.136h15.552c17.184 0 31.136 13.952 31.136 31.136v19.936c12.032 3.264 23.424 7.968 34.016 14.016l19.136-19.136c12.16-12.128 31.84-12.128 44 0l11.008 11.008c12.16 12.192 12.16 31.872 0 44.032l-18.976 18.976c6.080 10.656 10.912 22.112 14.24 34.176h20.544c17.184 0 31.136 13.952 31.136 31.136v15.552c0.128 17.216-13.824 31.136-31.008 31.136zM801.984-89.024c-47.264 0-85.568 38.304-85.568 85.6 0 47.264 38.304 85.568 85.568 85.568s85.568-38.304 85.568-85.568c0-47.296-38.304-85.6-85.568-85.6z" />
<glyph unicode="&#xe63f;" d="M850.336 496h61.664v-96h-61.664c-4.192-30.592-11.968-60.032-23.488-87.584l53.408-30.848-48-83.136-54.336 31.36c-18.656-23.552-40.32-44.544-64.352-62.656l32-55.392-83.136-48-32.672 56.544c-27.168-10.592-55.84-17.984-85.792-21.536v-66.752h-96v68.576c-29.184 4.512-57.312 12.192-83.648 23.392l-34.784-60.224-83.136 48 35.616 61.696c-22.304 17.888-42.208 38.496-59.584 61.216l-62.752-36.224-48 83.136 63.328 36.576c-10.272 25.952-17.472 53.376-21.376 81.888h-73.632v96h73.664c3.904 28.544 11.104 55.968 21.376 81.888l-63.328 36.576 48 83.136 62.752-36.224c17.376 22.72 37.28 43.328 59.584 61.248l-35.616 61.6 83.136 48 34.784-60.224c26.336 11.2 54.464 18.912 83.648 23.392v68.576h96v-66.72c29.952-3.552 58.624-10.944 85.792-21.536l32.672 56.544 83.136-48-32-55.424c24.032-18.112 45.696-39.104 64.352-62.656l54.336 31.36 48-83.136-53.408-30.848c11.488-27.552 19.264-56.992 23.456-87.584zM495.712 656.288c-114.88 0-208-93.12-208-208s93.12-208 208-208 208 93.12 208 208-93.12 208-208 208zM496 368c-44.192 0-80 35.808-80 80s35.808 80 80 80 80-35.808 80-80-35.808-80-80-80z" />
<glyph unicode="&#xe640;" d="M977.76 152.992l-400.608 685.952c-33.408 33.408-87.616 33.408-121.024 0l-400.64-685.952c-33.408-33.376-33.408-87.552 0-120.992h922.24c33.472 33.44 33.472 87.616 0.032 120.992zM479.744 592.704c0 26.528 21.504 48 48 48s48-21.472 48-48v-224c0-26.496-21.504-48-48-48s-48 21.504-48 48v224zM528.032 160.448c-26.496 0-48 21.44-48 48 0 26.496 21.504 48 48 48s48-21.504 48-48c0-26.56-21.504-48-48-48z" />
<glyph unicode="&#xe641;" d="M864 63.008h-64v-62.016h-128v62.016h-352v-62.016h-128v62.016h-64c-35.36 0-64 28.672-64 64v544c0 35.36 28.64 64 64 64h736c35.328 0 64-28.672 64-64v-544c0-35.36-28.672-64-64-64zM671.968 447.008h-127.968v128h-96v-128h-128v-96h128v-128h96v128h127.968v96zM608 831.68h-192v-64.672h-64v31.328h32v96.672h254.656v-96h33.344v-32h-64v64.672z" />
<glyph unicode="&#xe642;" d="M864 32h-128v672h128c35.328 0 64-28.672 64-64v-544c0-35.328-28.672-64-64-64zM320 704v0 64c0 35.36 28.672 64 64 64h224c35.328 0 64-28.64 64-64v-736h-352v672zM384 704h224c0 0 0 14.336 0 32 0 17.696-14.336 32-32 32h-160c-17.696 0-32-14.304-32-32 0-17.664 0-32 0-32zM64 96v544c0 35.328 28.672 64 64 64h128v-672h-128c-35.328 0-64 28.672-64 64z" />
<glyph unicode="&#xe643;" d="M864 32h-736c-35.36 0-64 28.672-64 64v384c0 0 167.072-85.92 320-121.088v-38.912c0-17.696 14.304-32 32-32h160c17.664 0 32 14.304 32 32v38.912c152.896 35.168 320 121.088 320 121.088v-384c0-35.328-28.672-64-64-64zM544 416c17.664 0 32-14.304 32-32v-32c0-17.696-14.336-32-32-32h-96c-17.696 0-32 14.304-32 32v32c0 17.696 14.304 32 32 32h96zM608 416c0 17.696-14.336 32-32 32h-160c-17.696 0-32-14.304-32-32v-28.672c-152.928 36.224-320 124.672-320 124.672v128c0 35.328 28.64 64 64 64h192v64c0 35.328 28.672 64 64 64h224c35.328 0 64-28.672 64-64v-64h192c35.328 0 64-28.672 64-64v-128c0 0-167.104-88.448-320-124.672v28.672zM608 736c0 17.696-14.336 32-32 32h-160c-17.696 0-32-14.304-32-32 0-17.664 0-32 0-32h224c0 0 0 14.336 0 32z" />
<glyph unicode="&#xe644;" d="M896 32h-768c-35.328 0-64 28.672-64 64v288h128v-96h128v96h384v-96h128v96h128v-288c0-35.328-28.672-64-64-64zM736 320v128h64v-128h-64zM224 320v128h64v-128h-64zM832 480h-128v-64h-384v64h-128v-64h-128v224c0 35.328 28.672 64 64 64h768c35.328 0 64-28.672 64-64v-224h-128v64zM608 800.672h-192v-64.672h-64v31.328h32v96.672h256.672v-96h31.328v-32h-64v64.672z" />
<glyph unicode="&#xe645;" d="M626.272 612.576l-100.608-151.424-73.12 73.696-73.152-118.304-54.848 54.304-59.392-118.848h466.304l-105.184 260.576zM128 800v-736h736v736h-736zM800 288h-608v448h608v-448zM335.712 541.728c26.528 0 48 21.472 48 48s-21.472 48-48 48c-26.496 0-48-21.472-48-48s21.504-48 48-48z" />
<glyph unicode="&#xe646;" d="M887.456 331.68l-42.112-157.248-1.184-0.32-46.016-171.744-297.472 79.68-3.552-0.928-313.216 83.904-0.544 2.048-83.36 22.368 15.776 58.912 1.024-0.288 154.528 576.704-1.024 0.288 16.288 60.704 547.36-146.688 0.512 1.792 150.752-40.384-98.304-366.72 0.544-2.080zM908.224 656.064l-576.736 154.528-113.856-424.96 576.672-154.496 113.92 424.928zM391.488 531.456l38.208-65.44 99.424 93.6 50.656-88.512 133.92 118.048 33.504-273.888-442.304 118.592 86.592 97.6zM420.064 595.84c-25.12 6.752-40.064 32.608-33.312 57.728 6.72 25.152 32.576 40.096 57.728 33.344 25.12-6.752 40.064-32.608 33.312-57.728-6.72-25.152-32.576-40.096-57.728-33.344zM692.48 816.672l-13.248-3.552-121.44 32.544 179.136 48 27.712-103.392-70.080 18.784-2.080 7.616zM115.744 662.112l39.744-148.32-32.544-121.408-84.16 314.176 181.376 48.608-18.784-70.080-85.632-22.976zM225.856 8.448l-32.576 121.536 243.104-65.152-210.528-56.384z" />
<glyph unicode="&#xe647;" d="M851.328 13.216l-83.968 23.040-0.192 232.256 80.32-22.592 115.808 432.288-586.624 157.184-38.656-144.192h-66.176l59.616 222.464 710.176-190.272-190.304-710.176zM737.248-64h-737.248v735.264h737.248v-735.264zM673.312 607.328h-609.376v-447.52h609.376v447.52zM251.168 288.224l73.056 118.144 73.056-73.632 100.448 151.264 105.056-260.288h-465.792l59.36 118.72 54.816-54.208zM207.488 413.248c-26.496 0-47.968 21.44-47.968 47.936s21.472 47.936 47.968 47.936 47.936-21.44 47.936-47.936-21.44-47.936-47.936-47.936z" horiz-adv-x="1040" />
<glyph unicode="&#xe648;" d="M736 320c-17.696 0-32 14.336-32 32v192c0 17.696 14.304 32 32 32 17.664 0 32-14.304 32-32v-192c0-17.664-14.336-32-32-32zM639.936 729.312c31.936-55.104 32.064-121.312 32.064-121.312h-320c0 0-1.248 67.072 31.008 122.368l-60.256 60.256c-6.24 6.24-6.24 16.384 0 22.624s16.384 6.24 22.624 0l56.512-56.512c23.68 26.208 58.592 45.248 110.112 45.248 50.88 0 85.472-19.552 109.12-46.208l57.504 57.472c6.24 6.24 16.384 6.24 22.624 0s6.24-16.384 0-22.624l-61.312-61.312zM432 704c-8.832 0-16-7.168-16-16s7.168-16 16-16c8.8 0 16 7.168 16 16s-7.2 16-16 16zM592 704c-8.832 0-16-7.168-16-16s7.168-16 16-16c8.8 0 16 7.168 16 16s-7.2 16-16 16zM320 352c0-17.664-14.336-32-32-32-17.696 0-32 14.336-32 32v192c0 17.696 14.304 32 32 32 17.664 0 32-14.304 32-32v-192zM672 288c0-41.76-26.816-76.864-64-90.112v-101.888c0-17.664-14.336-32-32-32-17.696 0-32 14.336-32 32v96h-64v-96c0-17.664-14.336-32-32-32-17.696 0-32 14.336-32 32v101.888c-37.216 13.248-64 48.384-64 90.112v288h320v-288z" />
<glyph unicode="&#xe649;" d="M512 832c-212.064 0-384-171.936-384-384 0-212.096 171.936-384 384-384 212.096 0 384 171.904 384 384 0 212.064-171.904 384-384 384zM754.4 389.888l-75.648-84.16-16.288 118.304c-97.984 30.016-209.984 30.304-313.984 0.32l-10.112-119.776c0 0-82.112 84.512-83.584 84.512-38.432-13.664-80.096-43.744-80.096-43.744l-1.984 25.984c0 0 317.344 221.344 664.032 0l-1.984-25.984c-0.064-0.032-38.336 32.544-80.352 44.544z" />
<glyph unicode="&#xe64a;" d="M555.584 433.984l266.848-271.456c-68-61.056-157.6-98.528-256.192-98.528-212.064 0-384 171.936-384 384s171.936 384 384 384c108.16 0 205.696-44.864 275.488-116.8l-286.144-281.216zM581.568 705.344c-26.496 0-47.968-21.504-47.968-48 0-26.528 21.472-48 47.968-48 26.528 0 48.032 21.472 48.032 48 0 26.496-21.504 48-48.032 48z" />
<glyph unicode="&#xe64b;" d="M897.728 365.728c0-221.856-179.84-401.728-401.728-401.728-221.856 0-401.728 179.872-401.728 401.728 0 215.104 169.152 390.144 381.664 400.672v69.312h-30.112c-17.76 0-32.16 14.4-32.16 32.16s14.4 32.128 32.16 32.128h96.384c17.76 0 32.16-14.368 32.16-32.128s-14.4-32.16-32.16-32.16h-34.112v-68.896c216.224-6.4 389.632-183.328 389.632-401.088zM475.936 642.912v73.312c-99.488-5.632-187.712-52.48-248.512-123.456l52.896-52.896-22.72-22.752-50.080 50.112c-40.768-57.536-65.024-127.584-65.024-203.488 0-3.392 0.48-8.032 0.48-8.032h77.824v-32.16h-75.52c7.808-65.664 33.824-127.584 72.576-177.088l39.776 39.776 22.72-22.72-41.472-41.504c60.128-63.872 143.616-105.504 237.056-110.784v87.328h32.128v-87.744c95.648 3.264 181.44 44.576 243.168 109.12l-45.568 45.568 22.72 22.72 44.064-44.032c39.68 49.92 66.368 112.672 74.304 179.328h-81.6v32.16h83.872c0.096 3.328 0.512 4.64 0.512 8.032 0 78.016-25.6 149.792-68.416 208.16l-52.736-52.736-22.72 22.72 55.232 55.2c-62.304 70.496-152.096 116.192-252.8 119.584v-73.728h-32.16zM510.048 355.68h112.512c8.864 0 16.064-7.232 16.064-16.064 0-8.864-7.2-16.096-16.064-16.096h-128.576c-8.864 0-16.064 7.232-16.064 16.096v222.944c0 8.864 7.2 16.064 16.064 16.064s16.064-7.2 16.064-16.064v-206.88z" />
<glyph unicode="&#xe64c;" d="M1248 574.336l-64-0.672v65.344c0 53.024-43.008 96-96 96h-992c-53.024 0-96-42.976-96-96v-352c0-52.992 42.976-96 96-96h127.328l-0.672-30.016h737.344l-0.672 30.016h128.672c52.992 0 96 43.008 96 96v65.984h65.312l-1.312 221.344zM1152 287.008c0-35.328-28.672-64-64-64h-992c-35.328 0-64 28.672-64 64v352c0 35.328 28.672 64 64 64h992c35.328 0 64-28.672 64-64v-352zM1088 671.008h-992c-17.696 0-32-14.304-32-32v-352c0-17.696 14.304-32 32-32h992c17.664 0 32 14.304 32 32v352c0 17.664-14.336 32-32 32zM1031.904 575.552l-25.6-24h-77.792l-21.76 24h125.152zM1002.56 475.552l11.2-11.872-13.44-11.872h-83.584l-10.592 11.872 12.8 11.872h83.616zM901.984 571.328l21.728-24-5.408-64-16.32-15.040-8.32 8.96 8.32 94.080zM694.304 571.328l21.728-24-5.408-64-16.32-15.040-8.32 8.96 8.32 94.080zM794.784 475.552l11.232-11.872-13.472-11.872h-83.488l-10.56 11.872 12.768 11.872h83.52zM374.56 571.328l21.728-24-5.6-64-16.16-15.072-8.224 8.96 8.256 94.112zM475.008 475.552l11.232-11.872-13.44-11.872h-83.616l-10.432 11.872 12.768 11.872h83.488zM296.8 575.552l-25.632-24h-77.76l-21.76 24h125.152zM166.88 571.328l21.76-24-5.632-64-16.16-15.072-8.224 8.96 8.256 94.112zM156.224 450.048l9.6 9.248 13.76-15.008-5.376-64.032-26.176-24 8.192 93.792zM152 351.808l26.24 24h77.632l21.408-24h-125.28zM282.080 356.32l-21.504 23.968 5.376 64.032 16.352 15.008 8-9.248-8.224-93.76zM292.672 477.248l-9.376-8.96-13.92 15.072 5.6 64 25.984 24-8.288-94.112zM363.904 450.048l9.6 9.248 13.76-15.008-5.376-64.032-26.176-23.968 8.192 93.76zM359.648 351.808l26.24 24h77.664l21.408-24h-125.312zM489.76 356.288l-21.44 24 5.408 64 16.352 15.040 8.032-9.248-8.352-93.792zM478.88 551.552h-77.76l-21.792 24h125.12l-25.568-24zM594.4 351.808h-24l2.208 24h24l-2.208-24zM608.48 514.304h-24l2.24 24h24l-2.24-24zM679.584 351.808l25.92 24h77.76l21.44-24h-125.12zM809.504 356.32l-21.472 23.968 5.44 64 16.352 15.040 8-9.248-8.32-93.76zM798.624 551.552h-77.76l-21.792 24h125.12l-25.568-24zM887.264 351.808l25.952 24h77.76l21.44-24h-125.152zM1017.184 356.32l-21.504 23.968 5.376 64.032 16.352 15.008 8-9.248-8.224-93.76zM1027.808 477.248l-9.408-8.96-13.92 15.072 5.632 64 25.984 24-8.288-94.112z" horiz-adv-x="1248" />
<glyph unicode="&#xe64d;" d="M512 848c-229.792 0-416-186.24-416-416s186.208-416 416-416c229.728 0 416 186.24 416 416s-186.24 416-416 416zM508.64 95.136c-185.568 0-336 150.432-336 336s150.432 336 336 336c185.536 0 336-150.432 336-336s-150.464-336-336-336zM605.76 411.808h-95.36v161.024c0 17.472-14.176 31.68-31.648 31.68-17.504 0-31.68-14.176-31.68-31.68v-192.672c0-17.504 14.176-31.648 31.68-31.648h127.008c17.504 0 31.68 14.144 31.68 31.648 0 17.472-14.176 31.648-31.68 31.648z" />
<glyph unicode="&#xe64e;" d="M927.936 687.008l-68.288 68.288c-12.608 12.576-32.96 12.576-45.536 0l-409.44-409.44-194.752 196.16c-12.576 12.576-32.928 12.576-45.536 0l-68.288-68.288c-12.576-12.608-12.576-32.96 0-45.536l285.568-287.488c12.576-12.576 32.96-12.576 45.536 0l500.736 500.768c12.576 12.544 12.576 32.96 0 45.536z" />
<glyph unicode="&#xe64f;" d="M626.784 447.968l195.072-195.072c12.672-12.672 12.672-33.248 0-45.92l-68.832-68.832c-12.672-12.672-33.216-12.672-45.92 0l-195.104 195.072-195.104-195.072c-12.672-12.672-33.216-12.672-45.888 0l-68.864 68.832c-12.672 12.672-12.672 33.216 0 45.92l195.104 195.072-195.104 195.104c-12.672 12.672-12.672 33.248 0 45.92l68.896 68.832c12.672 12.672 33.216 12.672 45.888 0l195.072-195.104 195.104 195.104c12.672 12.672 33.216 12.672 45.92 0l68.832-68.864c12.672-12.672 12.672-33.216 0-45.92l-195.072-195.072z" />
<glyph unicode="&#xe650;" d="M549.184 821.088c-337.984 0-549.184-373.088-549.184-373.088s209.184-373.088 549.184-373.088c318.016 0 559.392 373.088 559.392 373.088s-239.392 373.088-559.392 373.088zM552.192 279.968c-92.608 0-167.616 75.040-167.616 167.616s75.040 167.648 167.616 167.648 167.648-75.072 167.648-167.648-75.072-167.616-167.648-167.616zM553.216 531.392c-46.080 0-83.424-37.376-83.424-83.424 0-46.080 37.344-83.424 83.424-83.424s83.424 37.344 83.424 83.424c0.032 46.048-37.312 83.424-83.424 83.424z" horiz-adv-x="1120" />
<glyph unicode="&#xe651;" d="M768 96h-96c-17.696 0-32 14.304-32 32v64c0 17.696 14.304 32 32 32h64v192h-224v-192h32c17.664 0 32-14.304 32-32v-64c0-17.696-14.336-32-32-32h-96c-17.696 0-32 14.304-32 32v64c0 17.696 14.304 32 32 32h32v192h-224v-192h64c17.664 0 32-14.304 32-32v-64c0-17.696-14.336-32-32-32h-96c-17.696 0-32 14.304-32 32v64c0 17.696 14.304 32 32 32v224h256v224h-32c-17.696 0-32 14.336-32 32v64c0 17.664 14.304 32 32 32h96c17.664 0 32-14.336 32-32v-64c0-17.664-14.336-32-32-32h-32v-224h256v-224c17.664 0 32-14.304 32-32v-64c0-17.696-14.336-32-32-32z" />
<glyph unicode="&#xe652;" d="M767.104 97.12h-95.68c-17.6 0-31.904 14.24-31.904 31.872v63.808c0 17.568 14.304 31.872 31.904 31.872h63.776v159.488h-223.264v-159.488h31.872c17.632 0 31.904-14.304 31.904-31.872v-63.808c0-17.632-14.272-31.872-31.904-31.872h-95.68c-17.6 0-31.872 14.24-31.872 31.872v63.808c0 17.568 14.272 31.872 31.872 31.872h31.936v159.488h-223.296v-159.488h63.776c17.632 0 31.904-14.304 31.904-31.872v-63.808c0-17.632-14.272-31.872-31.904-31.872h-95.648c-17.632 0-31.904 14.24-31.904 31.872v63.808c0 17.568 14.272 31.872 31.904 31.872v191.36h255.168v127.584h-95.68c-17.632 0-31.904 14.272-31.904 31.904v159.488c0 17.6 14.272 31.904 31.904 31.904h223.264c17.632 0 31.872-14.272 31.872-31.904v-159.456c0-17.6-14.24-31.904-31.872-31.904h-95.68v-127.584h255.168v-191.36c17.6 0 31.904-14.304 31.904-31.872v-63.808c-0.032-17.664-14.368-31.904-31.936-31.904zM224.896 192.8v-63.808h95.648v63.808h-95.648zM607.616 575.52v159.488h-223.264v-159.456h223.264zM448.128 192.8v-63.808h95.68v63.808h-95.68zM767.104 192.8h-95.68v-63.808h95.68v63.808z" />
<glyph unicode="&#xe653;" d="M891.936 64c0 0 176.64-0.192 201.44 172.64 11.808 188.992-170.752 226.24-170.752 226.24s20.768 279.776-235.552 311.68c-219.68 22.432-286.528-181.728-286.528-181.728s-66.176 63.616-155.936 11.648c-80.352-49.6-66.144-140.416-66.144-140.416s-178.464-34.688-178.464-216.576c4-181.664 193.824-183.488 193.824-183.488z" horiz-adv-x="1120" />
<glyph unicode="&#xe654;" d="M941.632 462.88c0 0 20.768 279.776-235.552 311.68-219.68 22.432-286.56-181.728-286.56-181.728s-66.144 63.616-155.904 11.648c-80.352-49.6-66.144-140.416-66.144-140.416s-178.432-34.688-178.432-216.576c3.968-181.664 193.728-183.488 193.728-183.488h299.232v192h-96l160 160 160-160h-96v-192h270.944c0 0 176.64-0.192 201.44 172.64 11.808 188.992-170.752 226.24-170.752 226.24z" horiz-adv-x="1120" />
<glyph unicode="&#xe655;" d="M543.936 481.856c0 0 3.072 383.552 0 383.552 220.672 0 383.552-162.88 383.552-383.552 0-1.216-383.552 0-383.552 0zM895.552 403.136c0-229.472-186.048-415.52-415.52-415.52-229.504 0-415.52 186.048-415.52 415.52 0 229.504 186.016 415.52 415.52 415.52 10.784 0 21.376-0.768 31.968-1.6v-367.168h381.056c1.6-14.72 2.496-31.616 2.496-46.752zM861.6 415.936h-381.568v370.752c-211.84 0-383.552-171.744-383.552-383.584s171.712-383.52 383.552-383.52 383.552 171.68 383.552 383.52c0 41.28-1.984 12.832-1.984 12.832z" />
<glyph unicode="&#xe656;" d="M127.584 832h-31.584v-768h832v30.816l-799.872 1.6-0.544 735.584zM352 800c0 17.696-14.336 32-32 32h-96c-17.696 0-32-14.304-32-32v-640h160v640zM544 608c0 17.696-14.336 32-32 32h-96c-17.696 0-32-14.304-32-32v-448h160v448zM736 416c0 17.696-14.336 32-32 32h-96c-17.696 0-32-14.304-32-32v-256h160v256zM896 256h-96c-17.696 0-32-14.304-32-32v-64h160v64c0 17.696-14.336 32-32 32z" />
<glyph unicode="&#xe657;" d="M127.584 832h-31.584v-768h832v30.816l-799.872 1.6-0.544 735.584zM544 800c0 17.696-14.336 32-32 32h-96c-17.696 0-32-14.304-32-32v-640h160v640zM352 608c0 17.664-14.336 32-32 32h-96c-17.696 0-32-14.336-32-32v-448h160v448zM736 416c0 17.696-14.336 32-32 32h-96c-17.696 0-32-14.304-32-32v-256h160v256zM896 256h-96c-17.696 0-32-14.304-32-32v-64h160v64c0 17.696-14.336 32-32 32z" />
<glyph unicode="&#xe658;" d="M864 287.008h-640v-160h640c17.664 0 32 14.304 32 32v96c0 17.664-14.336 32-32 32zM704 351.008v96c0 17.664-14.336 32-32 32h-448v-160h448c17.664 0 32 14.304 32 32zM512 543.008v96c0 17.664-14.336 32-32 32h-256v-160h256c17.664 0 32 14.336 32 32zM320 735.008v96c0 17.696-14.336 32-32 32h-64v-160h64c17.664 0 32 14.336 32 32zM160 863.008h-32v-830.016h768v32h-736v798.016z" />
<glyph unicode="&#xe659;" d="M864 479.008h-640v-160h640c17.664 0 32 14.304 32 32v96c0 17.664-14.336 32-32 32zM704 159.008v96c0 17.696-14.336 32-32 32h-448v-160h448c17.664 0 32 14.304 32 32zM512 543.008v96c0 17.664-14.336 32-32 32h-256v-160h256c17.664 0 32 14.336 32 32zM320 735.008v96c0 17.696-14.336 32-32 32h-64v-160h64c17.664 0 32 14.336 32 32zM160 863.008h-32v-830.016h768v32h-736v798.016z" />
<glyph unicode="&#xe65a;" d="M357.216 590.272c0 84.96 69.312 153.824 154.784 153.824s154.784-68.864 154.784-153.824-69.312-153.792-154.784-153.792-154.784 68.864-154.784 153.792zM248.864 571.072c0-64.352 78.528-200 78.528-200l184.608-307.648 174.016 307.616c0 0 89.12 136.64 89.12 200 0 144.416-117.824 261.472-263.136 261.472s-263.136-117.024-263.136-261.44z" />
<glyph unicode="&#xe65b;" d="M941.632 462.88c0 0 20.736 279.776-235.552 311.68-219.712 22.432-286.56-181.728-286.56-181.728s-66.144 63.616-155.936 11.648c-80.32-49.6-66.144-140.416-66.144-140.416s-178.432-34.656-178.432-216.576c4-181.664 193.76-183.488 193.76-183.488h363.232l-160 160h96v192h128v-192h96l-160-160h334.944c0 0 176.64-0.192 201.44 172.64 11.808 188.992-170.752 226.24-170.752 226.24z" horiz-adv-x="1120" />
<glyph unicode="&#xe65c;" d="M269.792 667.040h670.656c69.056 0 69.056 71.616 2.688 71.616h-463.552c-26.56 0-39.808 39.808-39.808 39.808s-18.592 58.4-55.776 58.4h-345.248c-50.432 0-37.184-58.4-37.184-58.4s77.024-655.040 82.336-694.88 46.496-51.584 46.496-51.584l90.272 579.296c6.656 42.464 35.84 54.4 49.12 55.744zM1077.056 641.856h-786.016c-23.456 0-42.496-19.008-42.496-42.464l-82.304-524.8c0-23.488 19.040-42.496 42.496-42.496h786.016c23.424 0 42.496 19.008 42.496 42.496l82.304 524.8c0 23.456-18.976 42.464-42.496 42.464z" horiz-adv-x="1118" />
<glyph unicode="&#xe65d;" d="M864.416 151.104v-58.4h-704.832v58.4c0 0-15.072 32.288 66.72 109.728 81.728 77.408 70.976 277.504 70.976 413.024s190.336 138.4 190.336 138.4h6.528c0-0.064 0 0.928 0 22.016 0 13.536-45.44 62.56-45.44 62.56l-0.672 29.664h128.32l-0.864-30.784c0 0-49.248-48.992-49.248-63.424 0-13.952 0-18.624 0-20h10.144c0 0 190.336-2.88 190.336-138.4s-10.752-335.648 71.008-413.088 66.688-109.696 66.688-109.696zM592.384 61.76c0-44.32-35.904-92.256-80.192-92.256s-80.192 47.936-80.192 92.256c0-0.992 160.384 1.024 160.384 0z" />
<glyph unicode="&#xe65e;" d="M889.344 151.104l0.032-58.4h-667.84l529.824 529.856c-0.96-130.528-0.672-293.632 71.296-361.76 81.76-77.44 66.688-109.696 66.688-109.696zM133.568 96.64l680.48 680.448 22.656-22.688-680.448-680.448-22.688 22.688zM251.264 260.8c81.76 77.44 71.008 277.504 71.008 413.056s190.336 138.4 190.336 138.4h6.496c0-0.064 0 0.928 0 22.016 0 13.536-45.44 62.56-45.44 62.56l-0.672 29.664h128.32l-0.896-30.784c0 0-49.216-48.992-49.216-63.424 0-13.952 0-18.624 0-20h10.144c0 0 121.632-2.048 170.336-72.16l-509.088-509.12c7.968 9.12 17.152 18.912 28.672 29.792zM617.344 61.76c0-44.32-35.904-92.256-80.192-92.256-44.32 0-80.224 47.936-80.224 92.256 0-0.992 160.416 1.024 160.416 0z" />
<glyph unicode="&#xe65f;" d="M490.592 327.68c-0.832 0.576-97.088 162.4-97.408 164.48-19.904 43.488-35.968 87.968-2.496 107.712l-138.912 234.24c-36-26.912-137.824-172.96 52.768-503.936 200.768-348.8 391.84-334.304 430.144-310.688l-135.36 228.64c-32-18.816-58.944 12.192-108.736 79.552zM827.584 108.256l0.032 0.192c0 0-105.696 178.112-105.76 178.176-8.384 14.112-26.4 18.56-40.448 10.368l-64.768-38.304 135.744-229.312c0 0 64.768 38.112 64.736 38.24h0.128c14.88 8.832 18.304 27.072 10.336 40.64zM473.152 648.448v0.128c14.88 8.8 18.368 27.040 10.4 40.48l0.064 0.192c0 0-108.736 183.328-108.8 183.36-8.352 14.176-26.432 18.56-40.416 10.368l-64.768-38.304 138.752-234.368c0 0 64.736 38.048 64.768 38.144z" />
<glyph unicode="&#xe660;" d="M832-64h-672c-35.36 0-64 28.672-64 64v768c0 35.36 28.64 64 64 64v-768c0-35.328 28.672-64 64-64h128c35.36 0 64 28.672 64 64v768h416c35.36 0 64-28.672 64-64v-768c0-35.328-28.64-64-64-64zM672 32h64v64h-64v-64zM672 128h64v64h-64v-64zM672 224h64v64h-64v-64zM672 320h64v64h-64v-64zM576 32h64v64h-64v-64zM576 128h64v64h-64v-64zM576 224h64v64h-64v-64zM576 320h64v64h-64v-64zM832 736c0 17.696-14.304 32-32 32h-288c-17.664 0-32-14.304-32-32v-128c0-17.664 14.336-32 32-32h288c17.696 0 32 14.336 32 32v128zM832 384h-64v-64h64v64zM832 288h-64v-64h64v64zM832 192h-64v-64h64v64zM832 96h-64v-64h64v64zM352 32h-128c-17.664 0-32 14.304-32 32v800c0 17.696 14.336 32 32 32h62.016v64h33.984v-64h32c17.664 0 32-14.304 32-32v-800c0-17.696-14.336-32-32-32z" />
<glyph unicode="&#xe661;" d="M896-32h-768c-53.024 0-96 43.008-96 96v448c0 53.024 42.976 96 96 96h768c52.992 0 96-42.976 96-96v-448c0-52.992-43.008-96-96-96zM256 382.688c-53.024 0-96-50.144-96-112 0-61.888 42.976-112 96-112 52.992 0 96 50.112 96 112 0 61.856-43.008 112-96 112zM504.96 355.264c-3.68 7.584-8.608 13.504-14.656 17.696-6.080 4.224-13.632 7.072-22.624 8.576-6.4 1.184-15.68 1.76-27.84 1.76h-57.056v-221.248h32.256v64.512h26.944c25.92 0 43.776 11.392 53.728 22.176 9.888 10.816 14.848 57.984 14.848 73.568-0.032 9.024-1.888 25.376-5.6 32.96zM672.768 193.76h-97.856v64.256h94.592v29.76h-94.592v65.76h97.6v29.76h-127.84v-221.248h128.096v31.712zM862.528 383.264h-29.248v-169.92l-96.384 169.92h-32.864v-221.248h31.264v161.952l96.384-161.952h30.88v221.248zM442.336 258.24h-27.296v95.264h26.816c10.976 0 18.496-0.544 22.592-1.632 6.304-1.76 11.424-5.312 15.296-10.752s5.824-12 5.824-19.616c0-10.56-3.296-48.704-9.888-54.528s-17.696-8.736-33.344-8.736zM256 188c-35.328 0-64 35.808-64 80s28.672 80 64 80 64-35.808 64-80-28.672-80-64-80zM800 608l-234.304 174.4c-11.008-8.864-24.8-14.4-40-14.4-21.184 0-39.808 10.4-51.424 26.272l-250.272-186.272h-32l271.776 208.576c-1.216 4.96-2.080 10.080-2.080 15.424 0 35.328 28.672 64 64 64 35.36 0 64-28.672 64-64 0-11.488-3.296-22.144-8.608-31.488l250.912-192.512h-32z" />
<glyph unicode="&#xe662;" d="M896-32h-768c-53.024 0-96 43.008-96 96v448c0 53.024 42.976 96 96 96h64l271.776 208.576c-1.216 4.96-2.048 10.080-2.048 15.424 0 35.328 28.672 64 64 64s63.968-28.672 63.968-64c0-11.488-3.264-22.144-8.608-31.488l250.912-192.512h64c52.992 0 96-42.976 96-96v-448c0-52.992-43.008-96-96-96zM546.272 173.344h128.992v24.256h-101.76v182.016h-27.264v-206.272zM361.696 173.344l22.592 62.496h86.656l23.744-62.496h31.104l-84.096 206.24h-29.568l-79.296-206.24h28.864zM170.944 355.392c-5.888-9.088-8.832-18.848-8.832-29.248 0-9.504 2.4-18.048 7.232-25.728s12.16-14.048 21.984-19.264c7.552-4.032 20.768-8.32 39.648-12.864s31.072-7.904 36.608-10.048c8.608-3.328 14.784-7.328 18.592-12.16s5.728-10.432 5.728-16.896c0-6.336-1.952-12.256-5.824-17.664s-9.792-9.664-17.76-12.768c-7.936-3.136-17.088-4.672-27.456-4.672-11.68 0-22.176 2.016-31.52 6.144-9.376 4.064-16.256 9.44-20.672 16.096s-7.296 15.168-8.512 25.504l-25.76-2.24c0.384-13.792 4.16-26.112 11.328-37.024 7.168-10.944 17.024-19.136 29.6-24.576 12.608-5.44 28.192-8.16 46.816-8.16 14.656 0 27.872 2.688 39.616 8.096 11.744 5.376 20.736 12.864 27.008 22.592 6.272 9.696 9.408 20 9.408 30.976 0 11.040-2.88 20.768-8.608 29.248-5.728 8.512-14.592 15.488-26.624 20.992-8.288 3.744-23.456 8.128-45.536 13.12-22.112 5.024-35.776 9.952-40.992 14.752-5.344 4.736-8 10.848-8 18.24 0 8.576 3.776 15.84 11.296 21.888s19.488 9.088 35.936 9.088c15.808 0 27.744-3.328 35.808-9.92 8.096-6.624 12.8-16.416 14.208-29.344l26.24 1.984c-0.48 12.096-3.84 22.912-10.080 32.448-6.272 9.536-15.232 16.768-26.88 21.696s-25.088 7.36-40.352 7.36c-13.856 0-26.432-2.336-37.76-7.040-11.392-4.672-20-11.52-25.888-20.608zM565.696 782.4c-11.008-8.864-24.768-14.4-39.968-14.4-21.184 0-39.808 10.4-51.456 26.272l-250.272-186.272h576l-234.304 174.4zM861.952 197.6h-126.496v70.24h113.984v24.256h-113.984v63.264h121.76v24.256h-148.992v-206.24h153.76v24.224zM426.048 358.080c3.328-11.296 8.192-25.6 14.624-42.976l21.728-57.024h-70.368l22.88 60.384c4.704 13.024 8.416 26.24 11.136 39.616z" />
<glyph unicode="&#xe663;" d="M575.584 864h-160v-96h160v96zM575.584 480v64h-160v-64h160zM415.584 0h160v256h-160v-256zM799.584 576l-69.984 80 69.984 80h-512l-83.2-80 83.2-80h512zM735.584 448h-512l70.016-80-70.016-80h512l84 80-84 80z" />
<glyph unicode="&#xe664;" d="M256 128c0-52.992 42.976-96 96-96h320c52.992 0 96 43.008 96 96l64 512h-640l64-512zM608 544h64v-416h-64v416zM480 544h64v-416h-64v416zM352 544h64v-416h-64v416zM816 768h-208c0 0-14.336 64-32 64h-128c-17.696 0-32-64-32-64h-208c-26.528 0-48-21.472-48-48s0-48 0-48h704c0 0 0 21.472 0 48s-21.504 48-48 48z" />
<glyph unicode="&#xe665;" d="M31.104 542.176c45.728 220 234.656 385.024 460.992 385.024 226.368 0 415.296-164.992 460.992-384.992h-921.984zM530.208 752.32l-36.544 74.56-37.568-74.56h-73.568l58.528-58.016-15.552-78.4 66.048 32.224 74.496-31.68-22.944 75.168 60.64 60.736h-73.536zM224.288 42.272c-88.128 65.152-159.456 164.896-187.968 276.16h187.968v-276.16zM287.872 383.488h-32.544v128.16h32.544v-128.16zM320.416 511.648h30.528v-128.16h-30.528v128.16zM320.416 352.96h-32.544v30.528h32.544v-30.528zM446.016-46.496c-45.6 4.672-87.264 16.128-128.128 33.184v331.744h128.128v-364.928zM416 352.96v30.528h32.544v-30.528h-32.544zM383.456 383.488v95.616h32.544v-95.616h-32.544zM416 511.648h32.544v-32.544h-32.544v32.544zM479.104 479.136v-95.616h-30.56v95.616h30.56zM607.232 511.648v-32.544h-30.528v-126.144h-32.544v126.144h-32.544v32.544h95.616zM671.776-11.040c-40.8-17.632-82.496-29.664-128.16-34.784v364.256h128.16v-329.472zM639.776 511.648h95.552v-32.544h-63.072v-32.544h63.072v-32.576h-63.072v-30.528h63.072v-30.528h-95.552v158.72zM767.328 46.368v272.064h180.512c-27.936-108.928-95.104-207.008-180.512-272.064z" />
<glyph unicode="&#xe666;" d="M1044.448 398.048c0 0-146.944 149.824-349.44 149.824-197.856 0-393.44-149.824-393.44-149.824l-109.856 45.856v-134.528c17.312-5.888 29.984-21.824 29.984-41.12 0-19.488-12.928-35.456-30.496-41.216l32.48-90.592h-95.872l32.768 91.36c-15.744 6.688-26.752 22.24-26.752 40.448 0 17.824 10.688 32.992 25.952 39.904v149.088l-159.776 66.624 703.008 315.552 644.992-319.52-303.552-121.856zM687.008 471.968c203.712 0 303.552-107.84 303.552-107.84v-223.68c0 0-103.84-83.872-319.52-83.872s-287.584 83.872-287.584 83.872v223.68c0 0 99.84 107.84 303.552 107.84zM683.008 104.512c141.184 0 255.648 28.64 255.648 63.904s-114.464 63.904-255.648 63.904-255.616-28.64-255.616-63.904 114.432-63.904 255.616-63.904z" horiz-adv-x="1348" />
<glyph unicode="&#xe667;" d="M618.624 350.688c0 0-53.248-68-121.28 0-65.984 64-113.984 0-113.984 0l-158.944-313.28c-4.608-17.056 5.536-34.592 22.592-39.168h527.904c17.056 4.576 27.2 22.080 22.624 39.168l-178.912 313.28zM862.048 53.44l-255.328 429.696v0.8l-0.448 251.808h17.632c26.432 0 47.936 21.472 47.936 47.968 0 26.464-21.504 47.936-47.936 47.936h-255.84c-26.464 0-47.936-21.472-47.936-47.936 0-26.496 21.472-47.968 47.936-47.968h15.424l-0.512-251.872-221.056-430.432c-13.696-51.168 16.672-103.744 67.808-117.44h564.512c51.2 13.696 81.568 66.272 67.808 117.44zM785.696-31.936l-547.456 0.608c-34.080 9.152-54.304 44.224-45.184 78.272l222.304 435.712 0.672 285.056h-47.936c-8.8 0-15.968 7.168-15.968 16 0 8.8 7.168 15.968 15.968 15.968h255.84c8.8 0 15.936-7.168 15.936-15.968 0-8.832-7.136-16-15.936-16h-47.936l0.8-284 254.048-437.312c9.152-34.144-11.104-69.216-45.152-78.336zM527.36 879.616c0-17.664 14.336-32 32-32s32 14.336 32 32-14.304 32-32 32-32-14.304-32-32zM559.36 959.616c26.496 0 48 21.472 48 48s-21.504 48-48 48-48-21.472-48-48 21.504-48 48-48zM431.36 879.616c17.696 0 32 14.336 32 32s-14.304 32-32 32-32-14.336-32-32 14.304-32 32-32z" />
<glyph unicode="&#xe668;" d="M540.864 673.024l39.936 189.568h-203.168l41.504-189.568h121.728zM418.272 637.536l-134.4-428.256 203.2-168.8 187.552 168.8-131.328 428.256h-125.024zM602.688 578.112l93.824-257.92h56.256v57.856l-150.080 200.064z" />
<glyph unicode="&#xe669;" d="M713.696 115.424c-267.808-154.624-570.88-131.104-676.928 52.576-106.016 183.68 25.12 457.952 292.96 612.576s570.88 131.136 676.96-52.576c106.048-183.648-25.12-457.92-292.992-612.576zM80.32 408.576c-25.056-75.392-23.392-149.184 11.68-209.984 35.104-60.768 98.144-99.104 176-115.072l-187.68 325.056zM654.688 816.928c-92.8-6.080-195.168-36.672-293.152-93.216-99.68-57.6-178.464-132.544-230.112-211.392l252-436.48c94.112 5.312 198.4 36.032 298.144 93.6 97.952 56.576 175.616 129.952 227.328 207.296l-254.208 440.192zM961.824 481.824c26.048 76.384 24.8 151.232-10.688 212.768-35.552 61.568-99.744 100.032-178.944 115.648l189.632-328.416zM550.56 358.048l-25.952-15.008-31.040 53.696-0.128-0.064-29.312-16.928 31.008-53.696-25.984-15.008-31.008 53.696-0.128-0.064-29.312-16.928 31.008-53.696-25.984-15.008-31.008 53.728-0.128-0.096-55.424-32-16 27.712 55.552 32.096-32.384 56.096 25.984 15.008 32.416-56.096 29.44 16.992-32.416 56.16 25.984 14.976 32.416-56.096 29.44 16.992-32.384 56.128 25.984 14.976 32.416-56.096 29.44 16.992-32.384 56.128 25.984 14.976 32.384-56.096 29.44 16.992-32.384 56.096 25.952 15.008 32.448-56.096 29.44 16.992-32.448 56.128 25.984 14.976 32.384-56.096 57.888 33.376 16-27.712-57.888-33.408 31.008-53.696-25.952-15.008-31.008 53.696-29.44-16.992 31.008-53.696-25.984-15.008-31.008 53.696-0.128-0.064-29.312-16.928 31.008-53.696-25.984-15.008-31.008 53.696-0.128-0.064-29.312-16.928 30.944-53.728z" horiz-adv-x="1042" />
<glyph unicode="&#xe66a;" d="M512 832c-212.096 0-384-171.936-384-384s171.904-384 384-384c212.064 0 384 171.936 384 384s-171.936 384-384 384zM512 238.016c-114.88 0-208 93.12-208 208s93.12 208 208 208 208-93.12 208-208-93.12-208-208-208zM538.656 455.552c9.088 3.392 15.904 8.256 20.384 14.528s6.72 13.664 6.72 22.144c0 13.312-4.864 24.608-14.624 33.856-9.728 9.28-22.56 13.92-38.56 13.92-15.904 0-28.64-4.544-38.176-13.6-9.6-9.056-14.368-20.256-14.368-33.536 0-8.8 2.24-16.352 6.816-22.688 4.512-6.304 11.488-11.2 20.864-14.592-11.264-2.944-19.936-8.416-26.016-16.448-6.080-8.064-9.152-18.048-9.152-29.984 0-16 5.536-29.376 16.64-40.096 11.072-10.688 25.664-16.064 43.744-16.064 18.048 0 32.672 5.344 43.744 16 11.072 10.688 16.64 23.872 16.64 39.52 0 11.328-2.944 21.088-8.832 29.28s-14.528 14.080-25.824 17.76zM483.264 493.632c0 7.616 2.784 14.176 8.384 19.648 5.568 5.472 12.672 8.224 21.248 8.224 8.512 0 15.552-2.784 21.184-8.416 5.632-5.6 8.448-12.512 8.448-20.704 0-7.872-2.752-14.528-8.192-19.968s-12.512-8.16-21.184-8.16c-8.928 0-16.128 2.752-21.632 8.224s-8.256 12.512-8.256 21.152zM539.616 381.888c-6.944-6.944-15.776-10.368-26.56-10.368-6.88 0-13.344 1.632-19.328 4.928-6.016 3.296-10.528 7.936-13.504 13.952s-4.48 12.224-4.48 18.624c0 10.496 3.424 19.264 10.304 26.24s15.616 10.496 26.24 10.496c10.88 0 19.872-3.552 27.008-10.624s10.688-16.064 10.688-26.88c0.032-10.688-3.456-19.488-10.368-26.368z" />
<glyph unicode="&#xe66b;" d="M512 848c-220.928 0-400-179.072-400-400 0-220.896 179.072-400 400-400 220.896 0 400 179.104 400 400 0 220.928-179.104 400-400 400zM453.312 544c-26.496 0-48 21.504-48 48 0 26.528 21.504 48 48 48 26.528 0 48-21.472 48-48 0-26.496-21.472-48-48-48zM533.312 698.656c0 26.528 21.504 48 48 48 26.528 0 48-21.472 48-48s-21.472-48-48-48c-26.496 0-48 21.504-48 48zM624 464c-35.328 0-64 28.672-64 64s28.672 64 64 64 64-28.672 64-64-28.672-64-64-64z" />
<glyph unicode="&#xe66c;" d="M605.056 757.184h-183.936c0 0-122.176-229.312-122.176-426.080 0-104.544 44.416-277.92 44.896-277.92 31.872-126.912 54.56-116.992 175.2-116.992 111.2 0 142.816-10.016 167.904 116.864-0.576-0.544 38.112 171.68 38.112 278.016 0 214.336-120 426.112-120 426.112zM597.504 901.312c0 0 29.504 97.6 29.504 157.568s-30.432 149.504-111.872 149.504c-81.472 0-119.072-88.64-119.072-148.64 0-59.968 32.224-158.432 32.224-158.432h169.216zM590.304 807.328v50.144h-156.64v-50.112h156.64z" />
<glyph unicode="&#xe66d;" d="M638.432 448c0 206.304 106.624 322.208 106.624 322.208s-94.112 76.352-234.656 76.352c-140.544 0-234.688-76.416-234.688-76.416s108.544-88.16 108.544-322.144c0-225.792-109.248-321.664-109.248-321.664s113.568-76.896 235.392-76.896c124.704 0 234.752 76.48 234.752 76.48s-106.72 100-106.72 322.080zM248.928 749.056c0 0-132.576-80.8-132.576-302.4 0-221.568 134.048-294.080 134.048-294.080s97.696 72.544 97.696 294.080c0 221.6-99.168 302.4-99.168 302.4zM771.872 743.072c0 0-99.136-74.816-99.136-296.416 0-221.568 97.632-294.080 97.632-294.080s137.248 72.544 137.248 294.080c0 221.6-135.744 296.416-135.744 296.416z" />
<glyph unicode="&#xe66e;" d="M921.248 635.104c-0.192 0.48-0.448 0.96-0.672 1.472l0.928-0.16-0.256-1.312zM808 249.056l-149.376-6.208-78.016 137.12 80.736 145.792 156.384-5.184 66.752-136.288-76.48-135.232zM406.656 381.92l-78.368 141.792 81.92 136.672 167.072 2.56 82.048-136.096-80.64-145.504-172.032 0.576zM410.112 662.72l-61.76 106.336 82.048 100.096 143.2 4.576 76.32-94.528-73.056-113.92-166.752-2.56zM331.968 248.032l-132.32 12.928-63.744 127.456 55.616 129.216 134.56 5.152 78.4-141.856-72.512-132.896zM793.952 762.912l12.672 25.184c48-41.632 86.944-93.184 113.952-151.52l-47.424 7.552-79.2 118.784zM652.32 780l-76.448 94.624c1.888 2.304 12.064 14.688 12.256 14.88-68.512 11.456-131.008 5.6-172.192-4.064 0.288-0.192 10.208-12.736 12.256-15.328l-82.080-100.096-122.4-20.608-10.912 33.376-1.888-0.576c79.808 71.936 185.152 116.128 301.088 116.128 111.936 0 214.048-41.056 292.8-108.64l-12.928-25.728-139.552 16.032zM148.448 632.896l-51.456-12.128 0.576-2.24 50.56 11.904 41.6-111.104-55.808-129.696c-7.552 0.736-65.952 6.336-65.952 2.784 10.24-85.92 42.848-160.672 99.008-230.592l32.96 96.736 132.096-12.896 83.424-126.592-57.6-93.792c-172.64 63.072-296.192 228.256-296.192 422.72 0 132.672 57.696 251.52 148.96 333.952l11.072-33.984-73.248-115.072zM571.488 114.080l68.672-96.16 1.952 1.376-68.256 95.456 84.8 125.76 149.248 6.176c3.008-6.752 41.248-92.736 40.992-92.736 62.944 73.696 94.56 147.552 105.984 231.744-0.128 0-61.248-0.256-68.448-0.32l-66.816 136.576 53.888 119.712 47.552-7.584 0.128 0.992c26.112-57.024 41.056-120.256 41.056-187.104 0-248.704-201.632-450.336-450.304-450.336-53.408 0-104.384 9.792-151.904 26.848l57.504 93.6 153.952-4zM359.488 23.456l-1.984 1.216 0.384 0.64c0.736-0.288 1.504-0.544 2.24-0.8l-0.64-1.056zM210.592 782.080l0.352 0.128c-0.128-0.096-0.224-0.192-0.288-0.256l-0.064 0.128zM805.248 790.56l2.048-1.024-0.672-1.44c-0.64 0.544-1.184 1.088-1.824 1.632l0.448 0.832z" />
<glyph unicode="&#xe66f;" d="M429.696 702.4c54.88 0 68.608-27.424 105.152-22.848 36.576 4.576 4.576 68.576-27.424 114.272s-105.12 22.848-160-9.152c-54.848-32-346.272-209.152-346.272-209.152h254.848c0 0.032 118.848 126.88 173.696 126.88zM0 542.432v-416c0-35.328 28.64-64 64-64 0 0 246.72 0 514.656 0 48.064 0 92 149.344 141.344 149.344 42.848 0 75.072-149.344 117.312-149.344 284.576 0 538.656 0 538.656 0 35.36 0 64.032 28.672 64.032 64v416h-1440zM576 254.4c0-52.992-43.008-96-96-96h-288c-53.024 0-96 43.008-96 96v96c0 53.024 42.976 96 96 96h288c52.992 0 96-42.976 96-96v-96zM1344 254.4c0-52.992-43.008-96-96-96h-288c-53.024 0-96 43.008-96 96v96c0 53.024 42.976 96 96 96h288c52.992 0 96-42.976 96-96v-96zM905.12 679.552c36.576-4.576 50.272 22.848 105.152 22.848 54.848 0 173.728-126.848 173.728-126.848h254.848c0 0-291.424 177.152-346.272 209.152-54.88 32-128 54.848-160 9.152s-64-109.728-27.456-114.304z" horiz-adv-x="1440" />
<glyph unicode="&#xe670;" d="M1120 64h-255.968v736h255.968c17.696 0 32-14.304 32-32v-672c0-17.664-14.304-32-32-32zM992.032 192h32v32h-32v-32zM992.032 256h32v32h-32v-32zM992.032 320h32v32h-32v-32zM928.032 192h31.968v32h-31.968v-32zM928.032 256h31.968v32h-31.968v-32zM928.032 320h31.968v32h-31.968v-32zM1088.032 672h-160v-96h160v96zM1088.032 352h-32v-32h32v32zM1088.032 288h-32v-32h32v32zM1088.032 224h-32v-32h32v32zM0 96v672c0 17.696 14.336 32 32.032 32h800v-736h-800c-17.696 0-32.032 14.336-32.032 32zM769.248 399.712c17.696 0 32 14.336 32 32 0 17.696-14.304 32-32 32-17.664 0-32-14.304-32-32 0-17.664 14.336-32 32-32zM128 224c0-17.664 14.336-32 32.032-32h511.968c17.696 0 32 14.336 32 32v416c0 17.696-14.304 32-32 32h-511.968c-17.696 0-32.032-14.304-32.032-32v-416z" horiz-adv-x="1152" />
<glyph unicode="&#xe671;" d="M256 96c0-17.696 14.304-32 32-32h32v-32h64v32h256v-32h64v32h32c17.664 0 32 14.304 32 32v256h-512v-256zM288 320h32v-96h-32v96zM736 832h-448c-17.696 0-32-14.336-32-32v-416h512v416c0 17.664-14.304 32-32 32zM320 416h-32v96h32v-96z" />
<glyph unicode="&#xe672;" d="M960 32h-928c-17.696 0-32 14.336-32 32v544h992v-544c0-17.664-14.336-32-32-32zM864 512c0 17.696-14.336 32-32 32h-672c-17.696 0-32-14.304-32-32v-384c0-17.664 14.304-32 32-32h672c17.664 0 32 14.336 32 32v384zM288 480h416v-32h-416v32zM0 768c0 17.696 14.304 32 32 32h64c0 0 7.168 32 15.968 32h256.032c8.8 0 16-32 16-32h224c0 0 7.168 32 16 32h256c8.8 0 16-32 16-32h64c17.664 0 32-14.304 32-32v-128h-992v128zM911.328 671.328c26.528 0 48 21.472 48 48 0 26.496-21.472 48-48 48-26.496 0-48-21.504-48-48 0-26.528 21.472-48 48-48zM785.312 671.328c26.496 0 48 21.472 48 48 0 26.496-21.504 48-48 48s-48-21.504-48-48c0-26.528 21.504-48 48-48zM657.312 671.328c26.528 0 48 21.472 48 48 0 26.496-21.472 48-48 48-26.496 0-48-21.504-48-48 0-26.528 21.504-48 48-48zM529.312 671.328c26.496 0 48 21.472 48 48 0 26.496-21.504 48-48 48s-48-21.504-48-48c0-26.528 21.504-48 48-48z" />
<glyph unicode="&#xe673;" d="M128 544v-480c0-17.696 14.304-32 32-32h672c17.664 0 32 14.304 32 32v480c0 0-180.576 65.984-368.32 65.984-180.096 0-367.68-65.984-367.68-65.984zM688 316c0-101.632-82.368-184-184-184s-184 82.368-184 184 82.368 184 184 184 184-82.368 184-184zM832 832h-672c-17.696 0-32-14.304-32-32v-224c0 0 185.984 64 367.68 64 186.304 0 368.32-64 368.32-64v224c0 17.696-14.336 32-32 32zM352 704h-160v64h160v-64zM591.968 704c-17.664 0-31.968 14.336-31.968 32s14.304 32 31.968 32c17.696 0 32.032-14.336 32.032-32s-14.336-32-32.032-32zM688 704c-17.696 0-32 14.336-32 32s14.304 32 32 32c17.664 0 32-14.336 32-32s-14.336-32-32-32zM782.016 704c-17.696 0-32 14.336-32 32s14.304 32 32 32c17.664 0 32-14.336 32-32s-14.368-32-32-32zM353.984 316c0-82.848 67.168-150.016 150.016-150.016s150.016 67.168 150.016 150.016c0 0.192-51.328-52.672-150.016 6.016-98.688 58.656-150.016-5.824-150.016-6.016z" />
<glyph unicode="&#xe674;" d="M734.592-31.104h-159.488c-105.728 0-191.392 85.696-191.392 191.392v287.104h193.408v-63.808c0-35.232 26.56-63.776 61.824-63.776h31.872c35.264 0 63.808 28.576 63.808 63.776v63.808h193.376v-287.104c0-105.696-87.712-191.392-193.408-191.392zM734.592 511.2c0 35.232-28.576 63.808-63.808 63.808v0 189.408c0 0-41.856 1.984 61.824 1.984s195.392-67.776 195.392-191.392c0-63.456 0-86.336 0-93.696h-193.408v29.888zM641.216 788c0 61.664-29.024 96-87.136 96-61.472 0-108.512-44.288-141.088-132.832l-6.688-18.144c-38.112-103.52-93.984-155.296-167.52-155.296-29.696 0-57.408 11.328-83.168 33.92-25.76 22.624-38.624 46.912-38.624 72.928 0 12.864 6.016 19.328 18.112 19.328 8.16 0 16.576-10.272 25.248-30.784 15.744-37.888 42.048-56.832 78.848-56.832 27.872 0 50.656 8.992 68.416 27.040 17.76 18.016 37.952 52.672 60.544 103.968l14.592 32.352c42.848 95.744 100.576 143.616 173.088 143.616 83.104 0 124.64-47.424 124.64-135.264h-39.264zM702.688 495.264v-95.68c0-26.432-21.408-47.84-47.84-47.84s-47.84 21.408-47.84 47.84v95.68c0 26.432 21.408 47.872 47.84 47.872s47.84-21.44 47.84-47.872zM577.088 766.4c103.648 0 63.776-1.984 63.776-1.984v-189.408c-35.232 0-63.776-28.576-63.776-63.808v-29.92h-193.408c0 7.36 0 30.24 0 93.696 0 123.648 89.728 191.424 193.408 191.424z" />
<glyph unicode="&#xe675;" d="M512 832c-212.096 0-384-171.936-384-384s171.904-384 384-384c212.064 0 384 171.936 384 384s-171.936 384-384 384zM640 646.016c26.496 0 48-28.672 48-64s-21.504-64-48-64-48 28.672-48 64 21.504 64 48 64zM381.6 645.6c26.496 0 48-28.672 48-64s-21.504-64-48-64-48 28.672-48 64 21.504 64 48 64zM508 214.016c-131.36 0-219.424 85.984-235.264 228.992h31.008c25.12-110.656 93.12-166.016 204-166.016s178.88 55.328 204 166.016h32c-15.808-143.040-104.384-228.992-235.744-228.992z" />
<glyph unicode="&#xe676;" d="M512 832c-212.096 0-384-171.904-384-384 0-212.064 171.904-384 384-384 212.064 0 384 171.936 384 384 0 212.096-171.936 384-384 384zM638.016 649.984c26.496 0 48-28.672 48-64s-21.504-64-48-64-48 28.672-48 64 21.472 64 48 64zM382.016 649.984c26.496 0 48-28.672 48-64s-21.504-64-48-64-48 28.672-48 64 21.472 64 48 64zM509.76 311.712c-148 0-193.856-77.408-193.856-77.408s42.656 133.76 194.080 133.76c152.32 0 190.016-138.336 190.016-138.336s-42.24 81.984-190.24 81.984z" />
<glyph unicode="&#xe677;" d="M512 48.992c-220.384 0-399.008 178.624-399.008 399.008s178.624 399.008 399.008 399.008c220.352 0 399.008-178.624 399.008-399.008s-178.656-399.008-399.008-399.008zM383.904 656.864c-27.552 0-49.888-29.76-49.888-66.496 0-36.704 22.304-66.496 49.888-66.496 27.52 0 49.888 29.792 49.888 66.496 0 36.768-22.368 66.496-49.888 66.496zM379.168 371.488l-16.64-28.8 117.088-67.616-119.2-68.768 16.64-28.768 135.808 78.368 135.808-78.368 16.64 28.768-119.2 68.768 117.088 67.616-16.64 28.8-133.728-77.216-133.664 77.216zM641.504 656.608c-27.488 0-49.856-29.792-49.856-66.496 0-36.736 22.336-66.496 49.856-66.496 27.552 0 49.92 29.76 49.92 66.496-0.032 36.704-22.368 66.496-49.92 66.496z" />
<glyph unicode="&#xe678;" d="M668.896 191.552l94.688 127.488 111.2 106.24c0 0-37.056 44.192-82.88 44.192-20.576 0-39.424-5.888-56.64-17.664-17.12-11.744-32.736-29.376-46.816-52.96-19.68-6.88-35.008-13.44-46.016-19.68-2.432 24.512-5.376 42.656-8.8 54.4l63.872 247.936c15.136 59.776 18.752 89.984-17.248 105.984s-72.8-28.128-91.744-84.384l-60.576-191.456 1.824 246.208c0 60.448-19.072 90.656-57.216 90.656-38.528 0-57.76-26.784-57.76-80.32v-246.144l-61.952 215.616c-15.36 38.144-42.4 75.712-78.4 63.712s-34.304-71.232-24.32-109.152l55.2-210.208-89.024 147.040c-27.232 47.2-74.208 56.32-84.832 45.312-16.928-17.568-28.256-54.944 2.464-108.608l98.208-170.976 87.68-303.744v-59.040h256v76.128c29.728 20.384 55.424 48.192 93.088 83.424v0z" />
<glyph unicode="&#xe679;" d="M990.944 580.608c-5.728 124.608-55.616 248.928-152.576 344.096-97.12 95.296-224.032 144.288-351.2 149.76l-7.008 70.816c147.104-8.8 290.304-65.952 403.040-176.544 112.96-110.88 171.872-251.168 180.672-395.84l-72.928 7.712zM895.2 565.312l-70.208 9.696c1.152 86.464-31.168 174.016-98.4 240-65.92 64.672-152.928 96.448-239.328 96.64l-12.672 69.472c107.008-2.592 213.92-43.264 295.584-123.36 83.072-81.664 123.84-185.504 125.024-292.448zM725.824 569.472l-62.304 17.248c7.328 44.096-16.192 82.624-50.848 116.672-31.456 30.88-73.728 44.736-114.848 41.664l-24.096 69.12c65.728 4.256 132.864-18.272 183.104-67.584 49.536-48.64 72.544-113.472 68.992-177.12zM593.792 607.712c0-44.832-37.024-81.184-82.72-81.184-15.776 0-30.368 4.576-42.912 12.096l-35.552-34.944 257.28-249.792c-6.304-7.424-12.896-14.88-20.512-22.336-144.256-141.568-378.144-141.568-522.432 0-144.288 141.632-144.288 371.168 0 512.736 6.592 6.528 13.184 12 19.776 17.536l242.336-235.296 34.784 34.144c-9.696 13.28-15.52 29.44-15.52 47.040 0 44.832 37.056 81.184 82.752 81.184s82.72-36.32 82.72-81.184zM278.080 123.264c-3.040 0 84.064-187.264 84.064-187.264h-362.144l124.928 289.312c0 0 37.92-55.264 153.152-102.048z" />
<glyph unicode="&#xe67a;" d="M0 292.384l356.384-356.384c0 0 85.088 201.952-34.656 321.696-118.432 118.432-321.728 34.688-321.728 34.688zM956 264.064l-180.992-180.992 22.624-22.624 180.992 180.992-22.624 22.624zM1046.496 218.816l-203.616 203.68c-24.992 24.928-65.568 24.928-90.496 0l-17.856-17.856-49.92 49.92 89.504 89.504c24.992 24.992 22.176 68.352-2.816 93.344l-110.304 110.304c-24.992 24.992-65.504 24.992-90.496 0l-81.376-78.528-42.88 42.88 2.912 2.88c24.992 24.992 24.992 65.536 0 90.528l-203.648 203.68c-24.992 24.992-65.504 24.992-90.528 0l-135.744-135.776c-24.992-24.992-24.992-65.536 0-90.528l203.648-203.648c24.992-24.992 65.504-24.992 90.528 0l44.512 44.512 44.096-44.48-81.888-81.888c-24.992-24.992-15.552-164.096-15.552-164.096l55.136-55.136c0 0 139.072-9.44 164.064 15.552l70.848 70.816 49.92-49.92-27.968-27.968c-24.992-24.992-24.992-65.504 0-90.496l203.68-203.616c24.992-24.992 65.504-24.992 90.496 0l135.744 135.744c24.992 25.088 24.992 65.6 0 90.592zM41.856 850.752l135.776 135.776c12.48 12.512 32.736 12.512 45.248 0l-181.024-181.024c-12.512 12.48-12.512 32.768 0 45.248zM64.48 782.88l181.024 181.024 22.624-22.624-181.024-181.024-22.624 22.624zM109.728 737.632l181.024 181.024 22.624-22.656-180.992-180.992-22.656 22.624zM155.008 692.352l180.992 181.024 22.656-22.624-181.024-181.024-22.624 22.624zM200.256 647.104l181.024 181.024 22.624-22.624-181.024-181.024-22.624 22.624zM290.752 601.856c-12.48-12.512-32.736-12.512-45.248 0l181.024 181.024c12.512-12.512 12.512-32.768 0-45.248l-135.776-135.776zM381.056 432.064l-16.96 16.992 233.92 233.92 16.992-16.96-233.952-233.952zM639.2 264.064l135.808 135.808c12.512 12.448 32.736 12.448 45.248 0l-181.056-181.056c-12.512 12.512-12.512 32.736 0 45.248zM1023.872 150.944l-135.744-135.744c-12.512-12.512-32.736-12.512-45.248 0l-135.776 135.776 180.992 180.992-22.624 22.624-181.056-180.992-22.624 22.624 181.056 181.056 180.992-181.056c12.544-12.544 12.544-32.8 0.032-45.28zM1001.248 218.816l-180.992-180.992 22.624-22.624 180.992 180.992-22.624 22.624zM910.752 309.312l-180.992-180.992 22.624-22.624 180.992 180.992-22.624 22.624z" horiz-adv-x="1064" />
<glyph unicode="&#xe67b;" d="M511.968 527.008c-145.376 0-263.264-117.888-263.264-263.264s117.888-263.264 263.264-263.264c145.408 0 263.264 117.888 263.264 263.264s-117.856 263.264-263.264 263.264zM511.968 38.944c-123.008 0-222.752 99.744-222.752 222.816 0 123.008 99.744 222.72 222.752 222.72 123.072 0 222.752-99.712 222.752-222.72 0-123.072-99.68-222.816-222.752-222.816zM644.352 737.6l90.368 157.92h-445.504l91.744-157.92h263.392zM691.616 468.768l161.344 265.536-108.192 156.608-203.2-357.28c89.152-7.456 150.048-64.864 150.048-64.864zM481.696 535.616l-202.496 355.296-108.16-156.608 156.608-270.208c-0.032 0 56.832 58.624 154.048 71.52zM475.776 322.432c-12.256-9.568-23.552-16-33.984-19.424v-36.192c19.808 6.496 37.024 16.576 51.616 30.24v-150.752h40v209.568h-32.448c-4.544-12.672-12.928-23.872-25.184-33.44z" />
<glyph unicode="&#xe67c;" d="M294.176 318.816c-40 0-45.312 18.688-45.312 18.688l-156-306.56 125.088 14.016 69.184-104c0 0 144 300.576 144 298.56-74.56 1.792-44.96 77.28-136.96 79.296zM645.824 285.92c19.424 32.64 48.128 49.184 86.112 49.696 37.952 0.512 57.184 19.744 57.696 57.728 0.512 37.952 17.056 66.656 49.696 86.048s39.68 45.696 21.12 78.816-18.56 66.272 0 99.392 11.488 59.392-21.12 78.816-49.184 48.096-49.696 86.080c-0.512 37.952-19.744 57.184-57.696 57.696-38.016 0.512-66.688 17.056-86.112 49.696-19.36 32.64-45.696 39.68-78.816 21.12s-66.24-18.56-99.36 0-59.392 11.488-78.816-21.12c-19.424-32.64-48.096-49.184-86.080-49.696-37.952-0.544-57.184-19.776-57.696-57.728-0.512-37.984-17.056-66.656-49.696-86.080s-39.68-45.696-21.12-78.816c18.56-33.12 18.56-66.272 0-99.392s-11.488-59.392 21.12-78.816c32.64-19.424 49.184-48.128 49.696-86.048 0.512-37.984 19.744-57.216 57.696-57.728 37.984-0.512 66.656-17.056 86.080-49.696 19.392-32.64 45.696-39.648 78.816-21.12s66.24 18.528 99.36 0 59.424-11.488 78.816 21.152zM560.576 447.872h-56.992v215.232c-20.832-19.488-45.44-33.888-73.76-43.232v51.744c14.88 4.864 31.072 14.080 48.544 27.68s29.44 29.44 35.936 47.552h46.272v-298.976zM773.12 325.504c-113.984-12-90.816-40.192-116.8-62.176-30.016-32-67.424-25.824-67.424-25.824l176-302.56 43.2 112 123.072-16-158.048 294.56z" />
<glyph unicode="&#xe67d;" d="M128 896v-896h736v896h-736zM208 46.688c-17.696 0-32 14.304-32 32 0 17.664 14.304 32 32 32 17.664 0 32-14.336 32-32 0-17.696-14.336-32-32-32zM208.672 784c-17.664 0-32 14.336-32 32 0 17.696 14.336 32 32 32 17.696 0 32-14.304 32-32 0-17.664-14.336-32-32-32zM672 128h-352v640h352v-640zM782.656 49.344c-17.664 0-32 14.336-32 32s14.336 32 32 32 32-14.336 32-32-14.336-32-32-32zM783.328 784c-17.664 0-32 14.336-32 32 0 17.696 14.336 32 32 32 17.696 0 32-14.304 32-32 0-17.664-14.336-32-32-32zM608 704h-224v-320h224v320zM608 352h-224v-160h224v160z" />
<glyph unicode="&#xe67e;" d="M570.784 398.656l-321.568-321.568c-24.896-24.896-65.376-24.832-90.368 0.16-24.992 24.96-25.056 65.44-0.16 90.336l24.448 24.448-69.28 69.312c-12.512 12.48-12.544 32.704-0.096 45.184 12.48 12.48 32.672 12.416 45.184-0.096l69.312-69.312 22.56 22.56-24.064 24.064c-12.512 12.512-12.544 32.704-0.064 45.184 12.448 12.448 32.672 12.448 45.184-0.064l24.032-24.064 22.56 22.56-69.312 69.312c-12.512 12.512-12.544 32.672-0.064 45.152 12.448 12.48 32.672 12.448 45.184-0.064l69.28-69.312 116.768 116.768c-75.68 105.44-85.088 231.296-15.36 300.992 80.96 80.96 237.792 55.424 350.24-57.056s138.016-269.28 57.024-350.24c-69.792-69.792-195.904-60.224-301.44 15.744zM747.168 665.536c-49.984 49.984-115.776 65.28-146.912 34.112s-15.872-96.896 34.112-146.912c49.984-49.984 115.744-65.248 146.912-34.112s15.84 96.928-34.112 146.912z" />
<glyph unicode="&#xe67f;" d="M861.344 367.424l-429.92 429.92c-18.752 18.752-18.752 49.152 0 67.872 18.752 18.752 49.12 18.752 67.872 0l101.824-101.824 124.48 124.448c18.752 18.752 49.12 18.752 67.872 0 18.752-18.72 18.752-49.12 0-67.872l-124.448-124.448 90.496-90.496 124.448 124.448c18.752 18.752 49.152 18.752 67.904 0 18.72-18.752 18.72-49.12 0-67.872l-124.48-124.48 101.856-101.824c18.72-18.752 18.72-49.12 0-67.872-18.752-18.752-49.152-18.752-67.904 0zM669.024 197.728c-41.504-41.472-226.272-45.248-226.272-45.248l-226.272 226.272c0 0 3.776 184.768 45.248 226.272 41.504 41.472 158.4 158.368 158.4 158.368l407.296-407.296c-0.032 0.032-116.928-116.864-158.4-158.368zM216.48 333.504l181.024-181.024c12.512-12.512 12.512-32.736 0-45.248s-32.768-12.512-45.28 0l-180.992 181.024c-12.512 12.512-12.512 32.736 0 45.248s32.736 12.48 45.248 0zM306.976 107.232c0 0-15.2-15.232-33.952-33.952-18.752-18.752-49.12-18.752-67.872 0l-11.328 11.328-90.528-90.496-45.248 45.248 90.528 90.496-11.296 11.296c-18.752 18.752-18.752 49.152 0 67.904s35.808 32.032 35.808 32.032l133.888-133.856z" />
<glyph unicode="&#xe680;" d="M128-32v512h96v160c0 141.376 114.592 256 256 256h32c141.376 0 256-114.624 256-256v-160h96v-512h-736zM471.808 230.816l-23.808-166.816h96l-23.84 166.816c23.328 9.536 39.84 32.416 39.84 59.2 0 35.328-28.672 64-64 64-35.36 0-64-28.672-64-64 0-26.784 16.48-49.664 39.808-59.2zM672 624c0 97.216-78.816 176-176 176-97.216 0-176-78.784-176-176v-144h352v144z" />
<glyph unicode="&#xe681;" d="M928 480v144c0 97.216-78.816 176-176 176-97.216 0-176-78.784-176-176v-146.272h160v-509.728h-736v512h480v160c0 141.376 114.592 256 256 256h32c141.376 0 256-114.624 256-256v-160h-96zM368 353.984c-35.36 0-64-28.672-64-64 0-26.784 16.48-49.664 39.808-59.2l-23.808-166.784h96l-23.84 166.816c23.328 9.536 39.84 32.416 39.84 59.2 0 35.328-28.672 63.968-64 63.968z" />
<glyph unicode="&#xe682;" d="M512-32c-167.904 0-304 136.128-304 304 0 109.12 57.664 204.512 144 258.144v189.856c0 97.216 78.816 176 176 176s176-78.784 176-176v-212.384c68.32-55.744 112-140.544 112-235.616 0-167.872-136.096-304-304-304zM640 720c0 61.856-50.112 112-112 112-61.856 0-112-50.144-112-112v-159.712c30.208 10.048 62.4 15.712 96 15.712 45.824 0 89.056-10.4 128-28.544v172.544zM512 528c-141.376 0-256-114.624-256-256s114.624-256 256-256 256 114.624 256 256-114.624 256-256 256zM512 32c-132.576 0-240 107.424-240 240s107.424 240 240 240c132.576 0 240-107.424 240-240s-107.424-240-240-240zM560 336c0 26.496-21.504 48-48 48s-48-21.504-48-48c0-22.752 16.128-40.864 37.344-45.888l-37.344-146.112h97.984l-42.048 145.632c22.56 3.872 40.064 22.688 40.064 46.368z" />
<glyph unicode="&#xe683;" d="M896 512v208c0 61.856-50.144 112-112 112s-112-50.144-112-112v-189.856c86.304-53.632 144-149.024 144-258.144 0-167.904-136.096-304-304-304s-304 136.096-304 303.968c0 167.904 136.096 304 304 304 33.6 0 65.792-5.664 96-15.712v159.744c0 97.184 78.816 176 176 176s176-78.816 176-176v-208h-64zM512 528c-141.376 0-256-114.624-256-256s114.624-255.968 256-255.968 256 114.592 256 255.968c0 141.376-114.624 256-256 256zM512 32c-132.576 0-240 107.424-240 239.968 0 132.608 107.424 240.032 240 240.032s240-107.424 240-240.032c0-132.544-107.424-239.968-240-239.968zM560 335.968c0 26.528-21.504 48-48 48s-48-21.472-48-48c0-22.688 16.128-40.864 37.344-45.824l-37.344-146.144h97.984l-42.048 145.6c22.56 3.936 40.064 22.688 40.064 46.368z" />
<glyph unicode="&#xe684;" d="M932.992 1.248l-22.688-22.688c-25.12-25.088-65.76-25.088-90.816 0l-181.632 181.568c-20.992 21.056-23.328 52.608-8.992 77.184l-99.328 99.264c-53.408-39.616-119.296-63.328-190.88-63.328-177.28 0-320.992 143.712-320.992 320.992 0 177.312 143.712 321.024 320.992 321.024 177.312 0 320.992-143.712 320.992-321.024 0-82.528-31.36-157.536-82.56-214.4l97.12-97.12c24.576 14.304 56.128 12 77.12-9.056l181.632-181.568c25.088-25.12 25.088-65.792 0.032-90.848zM578.816 595.552c0 132.96-107.808 240.736-240.768 240.736s-240.768-107.744-240.768-240.736 107.776-240.736 240.736-240.736 240.8 107.776 240.8 240.736z" />
<glyph unicode="&#xe685;" d="M932.992 1.248l-22.688-22.688c-25.12-25.088-65.76-25.088-90.816 0l-181.632 181.568c-20.992 21.056-23.328 52.608-8.992 77.184l-99.328 99.264c-53.408-39.616-119.296-63.328-190.88-63.328-177.28 0-320.992 143.712-320.992 320.992 0 177.312 143.712 321.024 320.992 321.024 177.312 0 320.992-143.712 320.992-321.024 0-82.528-31.36-157.536-82.56-214.4l97.12-97.12c24.576 14.304 56.128 12 77.12-9.056l181.632-181.568c25.088-25.12 25.088-65.792 0.032-90.848zM578.816 595.552c0 132.96-107.808 240.736-240.768 240.736s-240.768-107.744-240.768-240.736 107.776-240.736 240.736-240.736 240.8 107.776 240.8 240.736zM352.064 513.312h-32.096v62.176h-64.192v32.096h64.192v64.224h32.096v-64.224h64.224v-32.096h-64.224v-62.176z" />
<glyph unicode="&#xe686;" d="M255.776 607.584h160.512v-32.096h-160.512zM932.992 92.064l-181.632 181.568c-20.992 21.056-52.576 23.36-77.12 9.056l-97.12 97.12c51.2 56.864 82.56 131.872 82.56 214.4 0 177.312-143.68 321.024-320.992 321.024-177.28 0-320.992-143.712-320.992-321.024 0-177.28 143.712-320.992 320.992-320.992 71.584 0 137.472 23.712 190.88 63.328l99.328-99.264c-14.304-24.608-12-56.128 8.992-77.184l181.632-181.568c25.056-25.088 65.696-25.088 90.816 0l22.688 22.688c25.024 25.088 25.024 65.76-0.032 90.848zM338.016 354.816c-132.96 0-240.736 107.776-240.736 240.736s107.776 240.736 240.736 240.736 240.768-107.776 240.768-240.736-107.776-240.736-240.768-240.736z" />
<glyph unicode="&#xe687;" d="M287.488 670.496v96.512h608v-446.496h-96.512l1.984-96.992h-98.496v-94.496h-605.952v446.976h95.008v96.512l95.968-2.016zM862.496 736h-544v-65.504l482.496 1.984-1.984-320.992h63.488v384.512zM768 639.488h-545.504v-63.488h480v-319.488h65.504v382.976zM127.488 544.992v-384.992h544v384.992h-544z" />
<glyph unicode="&#xe688;" d="M96 128h608v448h-608v-448zM190.016 608h545.984v-384h64v448h-608l-1.984-64zM288 768l-1.984-64h545.984v-384h64v448h-608z" />
<glyph unicode="&#xe689;" d="M915.456 600.128l-403.456 276.224-403.456-276.224 403.456-276.192 403.456 276.192zM512 262.304l-356.128 234.816-47.328-49.12 403.456-276.192 403.456 276.192-47.968 50.176-355.488-235.872zM512 110.112l-356.128 234.816-47.328-49.12 403.456-276.192 403.456 276.192-47.968 50.176-355.488-235.872z" />
</font>
</defs>
</svg>
